<svg id="Laag_1" data-name="Laag 1" xmlns="http://www.w3.org/2000/svg" viewBox="0 0 693 240"><defs><style>.cls-1{fill:#4f4e4e}.cls-2{fill:#fff}.cls-3{fill:#989999}.cls-4{fill:#66b660}.cls-5{fill:#6e81bf}.cls-6{fill:#5f4394}.cls-7{fill:#6d6d6c}.cls-8{fill:#3c3d27}.cls-9{fill:#4dad33}.cls-10{fill:#b82c23}</style></defs><title>clear-interface</title><path class="cls-1" d="M136 192h60v12.5h-60z"/><path class="cls-2" d="M6 6h320v180H6z"/><path class="cls-1" d="M326 6v180H6V6h320m6-6H0v192h332V0zM116 204h100v12H116zm380-12h60v12.5h-60z"/><path class="cls-2" d="M366 6h320v180H366z"/><path class="cls-1" d="M686 6v180H366V6h320m6-6H360v192h332V0zM476 204h100v12H476z"/><path class="cls-3" d="M386.93 68.03h87.87v60.26h-87.87zm9.09 78.92h56.94V186h-56.94z"/><path class="cls-4" d="M458.51 146.95h56.94V186h-56.94z"/><path class="cls-5" d="M385.04 6h45.3v22.97h-45.3zm53.02 0h45.3v22.97h-45.3z"/><path class="cls-3" d="M521 146.95h56.94V186H521zm62.49 0h56.94V186h-56.94zm62.49 0h39.85V186h-39.85zM366 68.03h11.84v60.26H366zm311.8.01h8.2v60.26h-8.2z"/><path class="cls-6" d="M483.89 68.03h87.87v60.26h-87.87z"/><path class="cls-3" d="M580.84 68.03h87.87v60.26h-87.87zm-57.82-43.57h69.69v14.6h-69.69z"/><path class="cls-7" d="M598.77 24.46h69.69v14.6h-69.69z"/><rect class="cls-8" x="625.42" y="117.96" width="40" height="40" rx="20" ry="20"/><path class="cls-3" d="M26.93 68.03h87.87v60.26H26.93zM6 68.03h11.84v60.26H6zm311.8 0h8.2v60.26h-8.2z"/><path class="cls-6" d="M123.89 68.03h87.87v60.26h-87.87z"/><path class="cls-3" d="M220.84 68.03h87.87v60.26h-87.87zm-57.82-43.57h69.69v14.6h-69.69z"/><path class="cls-7" d="M238.77 24.46h69.69v14.6h-69.69z"/><path class="cls-9" d="M303.09 235.21l-7.2-9.44a2.89 2.89 0 0 1-.48-2.08 2.81 2.81 0 0 1 1-1.84 2.54 2.54 0 0 1 2-.56 2.74 2.74 0 0 1 1.88 1.12l4.72 6.16 11.84-19a2.88 2.88 0 0 1 1.72-1.24 2.64 2.64 0 0 1 2.12.36 2.88 2.88 0 0 1 1.24 1.72 2.65 2.65 0 0 1-.36 2.12l-14 22.4a2.51 2.51 0 0 1-2.24 1.28l-.08.08a2.59 2.59 0 0 1-2.16-1.08z"/><path class="cls-10" d="M684.55 231.3a2.35 2.35 0 0 1-.72 1.72 2.63 2.63 0 0 1-3.44 0l-5.28-6.08-5.28 6.06a2.43 2.43 0 0 1-3.44-3.44l5.52-6.24-5.52-6.32a2.43 2.43 0 0 1 3.44-3.44l5.28 6.08 5.28-6.08a2.63 2.63 0 0 1 3.44 0 2.41 2.41 0 0 1 0 3.44l-5.52 6.32 5.52 6.24a2.35 2.35 0 0 1 .72 1.74z"/></svg>