<svg id="Laag_1" data-name="Laag 1" xmlns="http://www.w3.org/2000/svg" viewBox="0 0 692 240"><defs><style>.cls-1{fill:#fff}.cls-2{fill:#4f4e4e}.cls-3{fill:#efeeed}.cls-4{fill:#5f4394}.cls-5{fill:#1e1e1c}.cls-6{fill:#cdcbcb}.cls-7{fill:#4dad33}.cls-8{fill:#b82c23}</style></defs><title>clear-focus2</title><path class="cls-1" d="M6 6h320v180H6z"/><path class="cls-2" d="M326 6v180H6V6h320m6-6H0v192h332V0z"/><path class="cls-1" d="M366 6h320v180H366z"/><path class="cls-2" d="M686 6v180H366V6h320m6-6H360v192h332V0z"/><path class="cls-3" d="M26 79.01h57.71v57.71H26zM26 54h91.49v18.35H26zm63.48 25.01h57.71v57.71H89.48z"/><path class="cls-4" d="M152.95 79.01h57.71v57.71h-57.71z"/><path class="cls-3" d="M216.43 79.01h57.71v57.71h-57.71z"/><path class="cls-5" d="M71 104.77c-1.24 6-5.1 9.91-10.47 12.57a18.94 18.94 0 0 1-8.46 2.09 17.38 17.38 0 0 1-5.53-.91c-.93-.31-2.78-1.53-3.55-1.53-1 0-2.12 3.94-3.81 3.94-1.22 0-1.58-.6-2.11-1.49a1.47 1.47 0 0 1-.31-.85c0-2 3.83-3.57 3.83-4.69 0-.17-.5-1.2-.58-1.58a11.67 11.67 0 0 1-.17-2c0-6.14 4.89-10.53 10.37-12.34 4-1.31 12.38.21 15.07-2.34 1.06-1 1.58-1.89 3.21-1.89 2.18 0 2.9 5.66 2.9 7.3a18.74 18.74 0 0 1-.39 3.72zm-10.74-1.14c-6.84 0-11.24 2.86-15.71 7.79a1.23 1.23 0 0 0-.37.87 1.25 1.25 0 0 0 1.24 1.24 1.23 1.23 0 0 0 .87-.37c.95-.85 1.8-1.78 2.72-2.65a15 15 0 0 1 11.24-4.4 1.24 1.24 0 1 0 0-2.47zm72.07.12c-3 2.09-6 4.17-9 6.28-1.26.87-3.38 2.65-4.95 2.65-1.56 0-3.69-1.78-4.95-2.65-3-2.11-6-4.19-9-6.28-1.37-.93-3.32-3.11-3.32-4.87s1-3.52 3.09-3.52h28.44a3.11 3.11 0 0 1 3.09 3.09c-.09 2.17-1.73 4.12-3.4 5.3zm3.3 15.72a3.1 3.1 0 0 1-3.09 3.09h-28.43a3.1 3.1 0 0 1-3.09-3.09v-15.34a10.72 10.72 0 0 0 2 1.68c3.21 2.18 6.45 4.37 9.6 6.66 1.62 1.2 3.63 2.67 5.74 2.67 2.11 0 4.11-1.47 5.74-2.67 3.15-2.28 6.39-4.48 9.62-6.66a11.3 11.3 0 0 0 1.93-1.68z"/><path class="cls-1" d="M201.25 109.88l-5.7 7a7 7 0 0 1-4.95 2.36h-21a4.35 4.35 0 0 1-4.33-4.33V96.37a4.35 4.35 0 0 1 4.32-4.37h6.18a4.35 4.35 0 0 1 4.33 4.33V97h10.51a4.35 4.35 0 0 1 4.33 4.33v3.09h3.71a3.44 3.44 0 0 1 3.21 1.84 3 3 0 0 1 .29 1.31 3.79 3.79 0 0 1-.9 2.31zm-8.79-5.47v-3.09a1.86 1.86 0 0 0-1.85-1.86h-11.13a1.86 1.86 0 0 1-1.85-1.86v-1.23a1.86 1.86 0 0 0-1.85-1.86h-6.18a1.86 1.86 0 0 0-1.85 1.86v16.48l4.95-6.08a6.89 6.89 0 0 1 4.95-2.36zm6.18 2.47h-21a4.46 4.46 0 0 0-3 1.43l-5.68 7a1.35 1.35 0 0 0-.35.77c0 .54.6.68 1 .68h21a4.39 4.39 0 0 0 3-1.45l5.68-7a1.24 1.24 0 0 0 .35-.75c.03-.56-.57-.68-.99-.68z"/><path class="cls-5" d="M256.57 106.72a11.13 11.13 0 0 1-9.89 11v2.55h4.95a1.24 1.24 0 0 1 0 2.47h-12.37a1.24 1.24 0 0 1 0-2.47h4.95v-2.55a11.13 11.13 0 0 1-9.89-11v-2.47a1.24 1.24 0 0 1 2.47 0v2.47a8.65 8.65 0 0 0 17.31 0v-2.47a1.24 1.24 0 1 1 2.47 0zm-4.95 0a6.18 6.18 0 0 1-12.36 0v-9.89a6.18 6.18 0 1 1 12.36 0zM55.2 67.08v-7.69h1.46v2.84a2.15 2.15 0 0 1 1.72-.85c1.42 0 2.47 1.11 2.47 2.93s-1.06 2.92-2.47 2.92a2.17 2.17 0 0 1-1.72-.85v.71zm2.72-1.17a1.63 1.63 0 0 0 0-3.24 1.62 1.62 0 0 0-1.26.65v2a1.63 1.63 0 0 0 1.26.59zm7.8 1.17v-.7a2.61 2.61 0 0 1-2 .84A1.6 1.6 0 0 1 62 65.46v-4h1.46v3.38a.9.9 0 0 0 1 1 1.64 1.64 0 0 0 1.27-.63v-3.7h1.46v5.57zm3.21-1.38v-2.91H68v-1.28h.92V60h1.48v1.52h1.13v1.28h-1.12v2.5c0 .35.18.61.51.61a.8.8 0 0 0 .51-.16l.31 1.11a1.81 1.81 0 0 1-1.22.36 1.39 1.39 0 0 1-1.59-1.52zm3.9 0v-2.91h-.92v-1.28h.92V60h1.48v1.52h1.13v1.28h-1.13v2.5c0 .35.19.61.51.61a.8.8 0 0 0 .51-.16l.31 1.11a1.81 1.81 0 0 1-1.22.36 1.39 1.39 0 0 1-1.59-1.52zm3.26-1.41A2.95 2.95 0 1 1 79 67.22a2.82 2.82 0 0 1-2.91-2.93zm4.37 0A1.44 1.44 0 1 0 79 65.91a1.47 1.47 0 0 0 1.46-1.62zm6.37 2.79v-3.37a.9.9 0 0 0-1-1 1.59 1.59 0 0 0-1.27.66v3.75h-1.49v-5.61h1.46v.73a2.56 2.56 0 0 1 2-.87 1.62 1.62 0 0 1 1.81 1.78v3.93z"/><path class="cls-3" d="M214.51 54H306v18.35h-91.49z"/><path class="cls-5" d="M243.7 67.08v-7.69h1.46v2.84a2.15 2.15 0 0 1 1.72-.85c1.42 0 2.47 1.11 2.47 2.93s-1.06 2.92-2.47 2.92a2.17 2.17 0 0 1-1.72-.85v.71zm2.72-1.17a1.63 1.63 0 0 0 0-3.24 1.62 1.62 0 0 0-1.26.65v2a1.63 1.63 0 0 0 1.26.59zm7.81 1.17v-.7a2.61 2.61 0 0 1-2 .84 1.6 1.6 0 0 1-1.8-1.75v-4h1.46v3.38a.9.9 0 0 0 1 1 1.64 1.64 0 0 0 1.27-.63v-3.71h1.46v5.57zm3.21-1.38v-2.91h-.92v-1.28h.92V60h1.48v1.52H260v1.28h-1.13v2.5c0 .35.18.61.51.61a.8.8 0 0 0 .51-.16l.31 1.11a1.81 1.81 0 0 1-1.22.36 1.39 1.39 0 0 1-1.54-1.52zm3.9 0v-2.91h-.92v-1.28h.92V60h1.48v1.52h1.13v1.28h-1.13v2.5c0 .35.19.61.51.61a.8.8 0 0 0 .51-.16l.31 1.11a1.81 1.81 0 0 1-1.22.36 1.39 1.39 0 0 1-1.59-1.52zm3.25-1.41a2.95 2.95 0 1 1 2.94 2.93 2.82 2.82 0 0 1-2.94-2.93zm4.37 0a1.44 1.44 0 1 0-1.43 1.63 1.47 1.47 0 0 0 1.47-1.63zm6.37 2.79v-3.37a.9.9 0 0 0-1-1 1.59 1.59 0 0 0-1.27.66v3.75h-1.46v-5.61h1.4v.73a2.56 2.56 0 0 1 2-.87 1.62 1.62 0 0 1 1.81 1.78v3.93z"/><path class="cls-6" d="M120.32 54h91.49v18.35h-91.49z"/><path class="cls-5" d="M135.81 67.08v-.58a2.31 2.31 0 0 1-1.77.71 1.86 1.86 0 0 1-1.94-1.85 1.78 1.78 0 0 1 1.94-1.8 2.3 2.3 0 0 1 1.77.68v-.74c0-.56-.48-.93-1.22-.93a2.35 2.35 0 0 0-1.63.66l-.55-1a3.66 3.66 0 0 1 2.43-.88c1.27 0 2.43.51 2.43 2.11v3.6zm0-1.34v-.69a1.46 1.46 0 0 0-1.18-.49c-.58 0-1 .3-1 .84s.47.82 1 .82a1.47 1.47 0 0 0 1.18-.48zm2.56-1.45a2.83 2.83 0 0 1 3-2.92 2.59 2.59 0 0 1 2.2 1l-1 .9a1.35 1.35 0 0 0-1.18-.6 1.62 1.62 0 0 0 0 3.24 1.41 1.41 0 0 0 1.18-.6l1 .89a2.57 2.57 0 0 1-2.2 1 2.83 2.83 0 0 1-3-2.91zm6.4 1.41v-2.91h-.92v-1.28h.92V60h1.48v1.52h1.13v1.28h-1.13v2.5c0 .35.18.61.51.61a.8.8 0 0 0 .51-.16l.31 1.11a1.81 1.81 0 0 1-1.22.36 1.39 1.39 0 0 1-1.59-1.52zm3.47-5.7a.88.88 0 1 1 .88.88.88.88 0 0 1-.88-.88zm.15 7v-5.49h1.46v5.57zm4.36.08l-2.24-5.57h1.57l1.45 3.88 1.47-3.88h1.58l-2.24 5.57zm4.12-2.79a2.84 2.84 0 0 1 2.88-2.92 2.79 2.79 0 0 1 2.79 3.07v.32h-4.14a1.5 1.5 0 0 0 1.6 1.29 2.38 2.38 0 0 0 1.49-.55l.65.95a3.47 3.47 0 0 1-2.29.77 2.82 2.82 0 0 1-2.98-2.93zm2.88-1.75a1.34 1.34 0 0 0-1.37 1.23h2.75a1.29 1.29 0 0 0-1.38-1.23zm6.81 4.54v-7.69H168v2.84a2.15 2.15 0 0 1 1.72-.85c1.42 0 2.47 1.11 2.47 2.93s-1.06 2.92-2.47 2.92a2.17 2.17 0 0 1-1.72-.85v.71zm2.72-1.17a1.63 1.63 0 0 0 0-3.24 1.62 1.62 0 0 0-1.26.65v2a1.63 1.63 0 0 0 1.27.59zm7.81 1.17v-.7a2.61 2.61 0 0 1-2 .84 1.6 1.6 0 0 1-1.8-1.75v-4h1.46v3.38a.9.9 0 0 0 1 1 1.64 1.64 0 0 0 1.27-.63v-3.71h1.46v5.57zm3.21-1.38v-2.91h-.92v-1.28h.92V60h1.48v1.52h1.13v1.28h-1.13v2.5c0 .35.18.61.51.61a.8.8 0 0 0 .51-.16l.31 1.11a1.81 1.81 0 0 1-1.22.36 1.39 1.39 0 0 1-1.59-1.52zm3.9 0v-2.91h-.92v-1.28h.92V60h1.48v1.52h1.13v1.28h-1.13v2.5c0 .35.19.61.51.61a.8.8 0 0 0 .51-.16l.31 1.11a1.81 1.81 0 0 1-1.22.36 1.39 1.39 0 0 1-1.59-1.52zm3.25-1.41a2.95 2.95 0 1 1 2.94 2.93 2.82 2.82 0 0 1-2.94-2.93zm4.37 0a1.44 1.44 0 1 0-1.43 1.63 1.47 1.47 0 0 0 1.44-1.63zm6.38 2.79v-3.37a.9.9 0 0 0-1-1 1.59 1.59 0 0 0-1.27.66v3.75h-1.46v-5.61h1.46v.73a2.56 2.56 0 0 1 2-.87 1.62 1.62 0 0 1 1.81 1.78v3.93z"/><path class="cls-3" d="M386 77.01h57.71v57.71H386zM386 52h91.49v18.35H386zm63.48 25.01h57.71v57.71h-57.71z"/><path class="cls-4" d="M512.95 77.01h57.71v57.71h-57.71z"/><path class="cls-3" d="M576.43 77.01h57.71v57.71h-57.71z"/><path class="cls-5" d="M431 102.77c-1.24 6-5.1 9.91-10.47 12.57a18.94 18.94 0 0 1-8.46 2.09 17.38 17.38 0 0 1-5.53-.91c-.93-.31-2.78-1.53-3.55-1.53-1 0-2.12 3.94-3.81 3.94-1.22 0-1.58-.6-2.11-1.49a1.47 1.47 0 0 1-.31-.85c0-2 3.83-3.57 3.83-4.69 0-.17-.5-1.2-.58-1.58a11.68 11.68 0 0 1-.17-2c0-6.14 4.89-10.53 10.37-12.34 4-1.31 12.38.21 15.07-2.34 1.06-1 1.58-1.89 3.21-1.89 2.18 0 2.9 5.66 2.9 7.3a18.74 18.74 0 0 1-.39 3.72zm-10.74-1.14c-6.84 0-11.24 2.86-15.71 7.79a1.22 1.22 0 0 0-.37.87 1.25 1.25 0 0 0 1.24 1.24 1.23 1.23 0 0 0 .87-.37c.95-.85 1.8-1.78 2.72-2.65a15 15 0 0 1 11.24-4.4 1.24 1.24 0 0 0 0-2.47zm72.07.12c-3 2.09-6 4.17-9 6.28-1.26.87-3.38 2.65-4.95 2.65-1.56 0-3.69-1.78-4.95-2.65-3-2.11-6-4.19-9-6.28-1.37-.93-3.32-3.11-3.32-4.87s1-3.52 3.09-3.52h28.44a3.11 3.11 0 0 1 3.09 3.09c-.09 2.17-1.73 4.12-3.4 5.3zm3.3 15.72a3.1 3.1 0 0 1-3.09 3.09h-28.43a3.1 3.1 0 0 1-3.09-3.09v-15.34a10.72 10.72 0 0 0 2 1.68c3.21 2.18 6.45 4.37 9.6 6.66 1.62 1.2 3.63 2.67 5.74 2.67 2.11 0 4.11-1.47 5.74-2.67 3.15-2.28 6.39-4.48 9.62-6.66a11.3 11.3 0 0 0 1.93-1.68z"/><path class="cls-1" d="M561.25 107.87l-5.7 7a7 7 0 0 1-4.95 2.36h-21a4.35 4.35 0 0 1-4.33-4.33V94.37a4.35 4.35 0 0 1 4.32-4.37h6.18a4.35 4.35 0 0 1 4.33 4.33V95h10.51a4.35 4.35 0 0 1 4.33 4.33v3.09h3.71a3.44 3.44 0 0 1 3.21 1.84 3 3 0 0 1 .29 1.31 3.79 3.79 0 0 1-.9 2.3zm-8.79-5.47v-3.08a1.86 1.86 0 0 0-1.85-1.86h-11.13a1.86 1.86 0 0 1-1.85-1.86v-1.23a1.86 1.86 0 0 0-1.85-1.86h-6.18a1.86 1.86 0 0 0-1.85 1.86v16.48l4.95-6.08a6.89 6.89 0 0 1 4.95-2.36zm6.18 2.47h-21a4.46 4.46 0 0 0-3 1.43l-5.68 7a1.35 1.35 0 0 0-.35.77c0 .54.6.68 1 .68h21a4.39 4.39 0 0 0 3-1.45l5.68-7a1.24 1.24 0 0 0 .35-.75c.03-.55-.57-.67-.99-.67z"/><path class="cls-5" d="M616.57 104.72a11.13 11.13 0 0 1-9.89 11v2.55h4.95a1.24 1.24 0 0 1 0 2.47h-12.37a1.24 1.24 0 0 1 0-2.47h4.95v-2.55a11.13 11.13 0 0 1-9.89-11v-2.47a1.24 1.24 0 0 1 2.47 0v2.47a8.65 8.65 0 0 0 17.31 0v-2.47a1.24 1.24 0 0 1 2.47 0zm-4.95 0a6.18 6.18 0 1 1-12.36 0v-9.89a6.18 6.18 0 1 1 12.36 0zM415.2 65.08v-7.69h1.46v2.84a2.15 2.15 0 0 1 1.72-.85c1.42 0 2.47 1.11 2.47 2.93s-1.06 2.92-2.47 2.92a2.17 2.17 0 0 1-1.72-.85v.71zm2.72-1.17a1.63 1.63 0 0 0 0-3.24 1.62 1.62 0 0 0-1.26.65v2a1.63 1.63 0 0 0 1.26.59zm7.8 1.17v-.7a2.61 2.61 0 0 1-2 .84 1.6 1.6 0 0 1-1.8-1.75v-4h1.46v3.38a.9.9 0 0 0 1 1 1.64 1.64 0 0 0 1.27-.63v-3.71h1.46v5.57zm3.21-1.38v-2.91H428v-1.28h.92V58h1.48v1.52h1.13v1.28h-1.13v2.5c0 .35.18.61.51.61a.8.8 0 0 0 .51-.16l.31 1.11a1.81 1.81 0 0 1-1.22.36 1.39 1.39 0 0 1-1.58-1.52zm3.9 0v-2.91h-.92v-1.28h.92V58h1.48v1.52h1.13v1.28h-1.13v2.5c0 .35.19.61.51.61a.8.8 0 0 0 .51-.16l.31 1.11a1.81 1.81 0 0 1-1.22.36 1.39 1.39 0 0 1-1.59-1.52zm3.26-1.41a2.95 2.95 0 1 1 2.91 2.93 2.82 2.82 0 0 1-2.91-2.93zm4.37 0a1.44 1.44 0 1 0-1.46 1.62 1.47 1.47 0 0 0 1.46-1.62zm6.37 2.79v-3.37a.9.9 0 0 0-1-1 1.59 1.59 0 0 0-1.27.66v3.75h-1.46v-5.61h1.46v.73a2.56 2.56 0 0 1 2-.87 1.62 1.62 0 0 1 1.81 1.78v3.93z"/><path class="cls-3" d="M574.51 52H666v18.35h-91.49z"/><path class="cls-5" d="M603.7 65.08v-7.69h1.46v2.84a2.15 2.15 0 0 1 1.72-.85c1.42 0 2.47 1.11 2.47 2.93s-1.06 2.92-2.47 2.92a2.17 2.17 0 0 1-1.72-.85v.71zm2.72-1.17a1.63 1.63 0 0 0 0-3.24 1.62 1.62 0 0 0-1.26.65v2a1.63 1.63 0 0 0 1.26.59zm7.81 1.17v-.7a2.61 2.61 0 0 1-2 .84 1.6 1.6 0 0 1-1.8-1.75v-4h1.46v3.38a.9.9 0 0 0 1 1 1.64 1.64 0 0 0 1.27-.63v-3.71h1.46v5.57zm3.21-1.38v-2.91h-.92v-1.28h.92V58h1.48v1.52H620v1.28h-1.13v2.5c0 .35.18.61.51.61a.8.8 0 0 0 .51-.16l.31 1.11a1.81 1.81 0 0 1-1.22.36 1.39 1.39 0 0 1-1.54-1.52zm3.9 0v-2.91h-.92v-1.28h.92V58h1.48v1.52h1.13v1.28h-1.13v2.5c0 .35.19.61.51.61a.8.8 0 0 0 .51-.16l.31 1.11a1.81 1.81 0 0 1-1.22.36 1.39 1.39 0 0 1-1.59-1.52zm3.25-1.41a2.95 2.95 0 1 1 2.94 2.93 2.82 2.82 0 0 1-2.94-2.93zm4.37 0a1.44 1.44 0 1 0-1.43 1.63 1.47 1.47 0 0 0 1.47-1.63zm6.37 2.79v-3.37a.9.9 0 0 0-1-1 1.59 1.59 0 0 0-1.27.66v3.75h-1.46v-5.61h1.4v.73a2.56 2.56 0 0 1 2-.87 1.62 1.62 0 0 1 1.81 1.78v3.93z"/><path class="cls-4" d="M480.32 52h91.49v18.35h-91.49z"/><path class="cls-1" d="M495.81 65.08v-.58a2.31 2.31 0 0 1-1.77.71 1.86 1.86 0 0 1-1.94-1.85 1.78 1.78 0 0 1 1.94-1.8 2.3 2.3 0 0 1 1.77.68v-.74c0-.56-.48-.93-1.22-.93a2.35 2.35 0 0 0-1.63.66l-.55-1a3.66 3.66 0 0 1 2.43-.88c1.27 0 2.43.51 2.43 2.11v3.6zm0-1.34V63a1.47 1.47 0 0 0-1.18-.48c-.58 0-1 .3-1 .84s.47.82 1 .82a1.47 1.47 0 0 0 1.18-.44zm2.56-1.45a2.83 2.83 0 0 1 3-2.92 2.59 2.59 0 0 1 2.2 1l-1 .9a1.35 1.35 0 0 0-1.18-.6 1.62 1.62 0 0 0 0 3.24 1.41 1.41 0 0 0 1.18-.6l1 .89a2.57 2.57 0 0 1-2.2 1 2.83 2.83 0 0 1-3-2.91zm6.4 1.41v-2.91h-.92v-1.28h.92V58h1.48v1.52h1.13v1.28h-1.13v2.5c0 .35.18.61.51.61a.8.8 0 0 0 .51-.16l.31 1.11a1.81 1.81 0 0 1-1.22.36 1.39 1.39 0 0 1-1.59-1.52zm3.47-5.7a.88.88 0 1 1 .88.88.88.88 0 0 1-.88-.88zm.15 7v-5.49h1.46v5.57zm4.36.08l-2.24-5.57h1.57l1.45 3.88 1.47-3.88h1.58l-2.24 5.57zm4.12-2.79a2.84 2.84 0 0 1 2.88-2.92 2.79 2.79 0 0 1 2.79 3.07v.32h-4.14a1.5 1.5 0 0 0 1.6 1.29 2.38 2.38 0 0 0 1.49-.55l.65.95a3.47 3.47 0 0 1-2.29.77 2.82 2.82 0 0 1-2.98-2.93zm2.88-1.75a1.34 1.34 0 0 0-1.37 1.23h2.75a1.29 1.29 0 0 0-1.38-1.23zm6.81 4.54v-7.69H528v2.84a2.15 2.15 0 0 1 1.72-.85c1.42 0 2.47 1.11 2.47 2.93s-1.06 2.92-2.47 2.92a2.17 2.17 0 0 1-1.72-.85v.71zm2.72-1.17a1.63 1.63 0 0 0 0-3.24 1.62 1.62 0 0 0-1.26.65v2a1.63 1.63 0 0 0 1.27.59zm7.81 1.17v-.7a2.61 2.61 0 0 1-2 .84 1.6 1.6 0 0 1-1.8-1.75v-4h1.46v3.38a.9.9 0 0 0 1 1 1.64 1.64 0 0 0 1.27-.63v-3.71h1.46v5.57zm3.21-1.38v-2.91h-.92v-1.28h.92V58h1.48v1.52h1.13v1.28h-1.13v2.5c0 .35.18.61.51.61a.8.8 0 0 0 .51-.16l.31 1.11a1.81 1.81 0 0 1-1.22.36 1.39 1.39 0 0 1-1.59-1.52zm3.9 0v-2.91h-.92v-1.28h.92V58h1.48v1.52h1.13v1.28h-1.13v2.5c0 .35.19.61.51.61a.8.8 0 0 0 .51-.16l.31 1.11a1.81 1.81 0 0 1-1.22.36 1.39 1.39 0 0 1-1.59-1.52zm3.25-1.41a2.95 2.95 0 1 1 2.94 2.93 2.82 2.82 0 0 1-2.94-2.93zm4.37 0a1.44 1.44 0 1 0-1.43 1.63 1.47 1.47 0 0 0 1.44-1.63zm6.38 2.79v-3.37a.9.9 0 0 0-1-1 1.59 1.59 0 0 0-1.27.66v3.75h-1.46v-5.61h1.46v.73a2.56 2.56 0 0 1 2-.87 1.62 1.62 0 0 1 1.81 1.78v3.93z"/><path class="cls-2" d="M136 192h60v12.5h-60z"/><path class="cls-2" d="M116 204h100v12H116zm380-12h60v12.5h-60z"/><path class="cls-2" d="M476 204h100v12H476z"/><path class="cls-7" d="M303.09 235.21l-7.2-9.44a2.89 2.89 0 0 1-.48-2.08 2.81 2.81 0 0 1 1-1.84 2.54 2.54 0 0 1 2-.56 2.74 2.74 0 0 1 1.88 1.12l4.72 6.16 11.84-19a2.88 2.88 0 0 1 1.72-1.24 2.64 2.64 0 0 1 2.12.36 2.88 2.88 0 0 1 1.24 1.72 2.65 2.65 0 0 1-.36 2.12l-14 22.4a2.51 2.51 0 0 1-2.24 1.28l-.08.08a2.59 2.59 0 0 1-2.16-1.08z"/><path class="cls-8" d="M684.55 231.29a2.35 2.35 0 0 1-.72 1.72 2.63 2.63 0 0 1-3.44 0l-5.28-6.08-5.28 6.07a2.43 2.43 0 0 1-3.44-3.44l5.52-6.24-5.52-6.32a2.43 2.43 0 0 1 3.44-3.44l5.28 6.08 5.28-6.08a2.63 2.63 0 0 1 3.44 0 2.41 2.41 0 0 1 0 3.44l-5.52 6.32 5.52 6.24a2.35 2.35 0 0 1 .72 1.73z"/></svg>