<svg id="Laag_1" data-name="Laag 1" xmlns="http://www.w3.org/2000/svg" viewBox="0 0 1052 240"><defs><style>.cls-1{fill:#fff}.cls-2{fill:#4f4e4e}.cls-3{fill:#1e1e1c}.cls-4{fill:#5f4394}.cls-5{fill:#efeeed}.cls-6{fill:#cecdce}.cls-7{fill:#4dad33}.cls-8{fill:#b82c23}</style></defs><title>clear-focus</title><path class="cls-1" d="M6 6h320v180H6z"/><path class="cls-2" d="M326 6v180H6V6h320m6-6H0v192h332V0z"/><path class="cls-1" d="M366 6h320v180H366z"/><path class="cls-2" d="M686 6v180H366V6h320m6-6H360v192h332V0z"/><path class="cls-1" d="M726 6h320v180H726z"/><path class="cls-2" d="M1046 6v180H726V6h320m6-6H720v192h332V0z"/><path class="cls-3" d="M816.49 89.4c-1.92 9.33-7.92 15.39-16.26 19.53a29.41 29.41 0 0 1-13.14 3.24 26.93 26.93 0 0 1-8.58-1.41c-1.44-.48-4.32-2.37-5.52-2.37-1.5 0-3.3 6.12-5.91 6.12-1.89 0-2.46-.93-3.27-2.31a2.28 2.28 0 0 1-.48-1.32c0-3.12 5.94-5.55 5.94-7.29 0-.27-.78-1.86-.9-2.46a17.94 17.94 0 0 1-.27-3.13c0-9.54 7.59-16.35 16.11-19.17 6.15-2 19.23.33 23.4-3.63 1.65-1.53 2.46-2.94 5-2.94 3.39 0 4.5 8.79 4.5 11.34a29.2 29.2 0 0 1-.62 5.8zm-16.68-1.77c-10.62 0-17.46 4.44-24.39 12.09a1.91 1.91 0 0 0-.57 1.35 1.93 1.93 0 0 0 1.92 1.92 1.91 1.91 0 0 0 1.35-.57c1.47-1.32 2.79-2.76 4.23-4.11 5.43-4.89 10.08-6.84 17.46-6.84a1.92 1.92 0 1 0 0-3.84zm79.35 1.5c-4.68 3.24-9.39 6.48-14 9.75-2 1.35-5.25 4.11-7.68 4.11h-.06c-2.43 0-5.73-2.76-7.68-4.11-4.65-3.27-9.36-6.51-14-9.75-2.13-1.44-5.16-4.83-5.16-7.56 0-2.94 1.59-5.46 4.8-5.46h44.16a4.83 4.83 0 0 1 4.8 4.8c-.05 3.36-2.54 6.39-5.18 8.22zm5.13 24.42a4.81 4.81 0 0 1-4.8 4.8h-44.16a4.81 4.81 0 0 1-4.8-4.8V89.73a16.77 16.77 0 0 0 3 2.61c5 3.39 10 6.78 14.91 10.35 2.52 1.86 5.64 4.14 8.91 4.14h.06c3.27 0 6.39-2.28 8.91-4.14 4.89-3.54 9.93-7 14.94-10.35a17.67 17.67 0 0 0 3-2.61z"/><path class="cls-4" d="M953.62 100l-8.85 10.89a10.83 10.83 0 0 1-7.68 3.66h-32.64a6.75 6.75 0 0 1-6.72-6.72V79a6.75 6.75 0 0 1 6.72-6.72h9.6a6.75 6.75 0 0 1 6.72 6.72v1h16.32a6.75 6.75 0 0 1 6.72 6.72v4.8h5.76a5.33 5.33 0 0 1 5 2.85 4.72 4.72 0 0 1 .45 2 5.91 5.91 0 0 1-1.4 3.63zM940 91.47v-4.8a2.88 2.88 0 0 0-2.88-2.88h-17.31a2.88 2.88 0 0 1-2.88-2.88V79a2.88 2.88 0 0 0-2.88-2.88h-9.6a2.88 2.88 0 0 0-2.88 2.88v25.59l7.68-9.45a10.71 10.71 0 0 1 7.68-3.66zm9.6 3.84h-32.67a6.92 6.92 0 0 0-4.71 2.22l-8.82 10.89a2.09 2.09 0 0 0-.54 1.2c0 .84.93 1.05 1.59 1.05h32.64a6.83 6.83 0 0 0 4.71-2.25l8.82-10.89a1.93 1.93 0 0 0 .54-1.17c0-.84-.93-1.05-1.59-1.05z"/><path class="cls-3" d="M1003.33 93.39A17.28 17.28 0 0 1 988 110.55v4h7.68a1.92 1.92 0 1 1 0 3.84h-19.2a1.92 1.92 0 1 1 0-3.84h7.68v-4a17.28 17.28 0 0 1-15.36-17.16v-3.84a1.92 1.92 0 1 1 3.84 0v3.84a13.44 13.44 0 1 0 26.88 0v-3.84a1.92 1.92 0 1 1 3.84 0zm-7.68 0a9.6 9.6 0 1 1-19.2 0V78a9.6 9.6 0 1 1 19.2 0z"/><path class="cls-5" d="M26 64h65.12v65.12H26zm71.63 0h65.12v65.12H97.63z"/><path class="cls-4" d="M169.26 64h65.12v65.12h-65.12z"/><path class="cls-5" d="M240.88 64H306v65.12h-65.12z"/><path class="cls-3" d="M76.77 93.08C75.37 99.86 71 104.26 65 107.26a21.36 21.36 0 0 1-9.54 2.35 19.56 19.56 0 0 1-6.23-1c-1-.35-3.14-1.72-4-1.72-1.09 0-2.4 4.45-4.29 4.45-1.37 0-1.79-.68-2.37-1.68a1.66 1.66 0 0 1-.35-1c0-2.27 4.31-4 4.31-5.29 0-.2-.57-1.35-.65-1.79a13.14 13.14 0 0 1-.2-2.27c0-6.93 5.51-11.87 11.7-13.92 4.47-1.48 14 .24 17-2.64 1.2-1.11 1.79-2.13 3.62-2.13 2.46 0 3.27 6.38 3.27 8.24a21.2 21.2 0 0 1-.5 4.22zm-12.12-1.29c-7.71 0-12.68 3.22-17.71 8.78a1.38 1.38 0 0 0-.41 1 1.4 1.4 0 0 0 1.39 1.39 1.38 1.38 0 0 0 1-.41c1.07-1 2-2 3.07-3 3.94-3.55 7.32-5 12.68-5a1.39 1.39 0 1 0 0-2.79zm81.35.14c-3.4 2.35-6.82 4.71-10.2 7.08-1.42 1-3.81 3-5.58 3s-4.16-2-5.58-3c-3.38-2.37-6.8-4.73-10.18-7.08-1.55-1-3.75-3.51-3.75-5.49 0-2.13 1.16-4 3.49-4h32.07A3.51 3.51 0 0 1 149.7 86c0 2.4-1.81 4.6-3.7 5.93zm3.73 17.74a3.5 3.5 0 0 1-3.49 3.49h-32.1a3.5 3.5 0 0 1-3.49-3.49V92.36a12.18 12.18 0 0 0 2.2 1.9c3.62 2.46 7.28 4.92 10.83 7.52 1.83 1.35 4.1 3 6.47 3 2.38 0 4.64-1.66 6.47-3 3.55-2.57 7.21-5.05 10.85-7.52a12.85 12.85 0 0 0 2.18-1.9z"/><path class="cls-1" d="M223.74 98.84l-6.43 7.91a7.86 7.86 0 0 1-5.58 2.66H188a4.9 4.9 0 0 1-4.88-4.88V83.61a4.9 4.9 0 0 1 4.88-4.88h7a4.9 4.9 0 0 1 4.88 4.88v.7h11.85a4.9 4.9 0 0 1 4.88 4.88v3.49h4.18a3.87 3.87 0 0 1 3.62 2.07 3.42 3.42 0 0 1 .33 1.48 4.28 4.28 0 0 1-1 2.61zm-9.91-6.17v-3.48a2.09 2.09 0 0 0-2.09-2.09h-12.56a2.09 2.09 0 0 1-2.09-2.1v-1.39a2.09 2.09 0 0 0-2.09-2.09h-7a2.09 2.09 0 0 0-2.09 2.09v18.59l5.58-6.86a7.78 7.78 0 0 1 5.58-2.66zm7 2.79h-23.74a5 5 0 0 0-3.42 1.61l-6.4 7.93a1.52 1.52 0 0 0-.39.87c0 .61.68.76 1.16.76h23.71a5 5 0 0 0 3.42-1.63l6.41-7.91a1.4 1.4 0 0 0 .39-.85c.03-.63-.69-.78-1.17-.78z"/><path class="cls-3" d="M286.17 95.28A12.55 12.55 0 0 1 275 107.74v2.88h5.58a1.39 1.39 0 0 1 0 2.79h-13.93a1.39 1.39 0 1 1 0-2.79h5.58v-2.88a12.55 12.55 0 0 1-11.16-12.46v-2.79a1.39 1.39 0 1 1 2.79 0v2.79a9.76 9.76 0 1 0 19.52 0v-2.79a1.39 1.39 0 1 1 2.79 0zm-5.58 0a7 7 0 1 1-13.95 0V84.13a7 7 0 0 1 13.95 0z"/><path class="cls-5" d="M386 64h65.12v65.12H386zm71.63 0h65.12v65.12h-65.12z"/><path class="cls-6" d="M529.26 64h65.12v65.12h-65.12z"/><path class="cls-5" d="M600.88 64H666v65.12h-65.12z"/><path class="cls-3" d="M436.77 93.08c-1.39 6.78-5.75 11.18-11.81 14.19a21.36 21.36 0 0 1-9.54 2.35 19.55 19.55 0 0 1-6.23-1c-1-.35-3.14-1.72-4-1.72-1.09 0-2.4 4.45-4.29 4.45-1.37 0-1.79-.68-2.37-1.68a1.66 1.66 0 0 1-.35-1c0-2.27 4.31-4 4.31-5.29 0-.2-.57-1.35-.65-1.79a13 13 0 0 1-.2-2.27c0-6.93 5.51-11.87 11.7-13.92 4.47-1.48 14 .24 17-2.64 1.2-1.11 1.79-2.13 3.62-2.13 2.46 0 3.27 6.38 3.27 8.24a21.2 21.2 0 0 1-.46 4.21zm-12.12-1.29c-7.71 0-12.68 3.22-17.71 8.78a1.38 1.38 0 0 0-.41 1 1.4 1.4 0 0 0 1.39 1.39 1.38 1.38 0 0 0 1-.41c1.07-1 2-2 3.07-3 3.94-3.55 7.32-5 12.68-5a1.39 1.39 0 0 0 0-2.79zm81.35.14c-3.4 2.35-6.82 4.71-10.2 7.08-1.42 1-3.81 3-5.58 3s-4.16-2-5.58-3c-3.38-2.37-6.8-4.73-10.18-7.08-1.55-1-3.75-3.51-3.75-5.49 0-2.13 1.16-4 3.49-4h32.07A3.51 3.51 0 0 1 509.7 86c0 2.4-1.81 4.6-3.7 5.93zm3.73 17.74a3.5 3.5 0 0 1-3.49 3.49h-32.1a3.5 3.5 0 0 1-3.49-3.49V92.36a12.18 12.18 0 0 0 2.2 1.9c3.62 2.46 7.28 4.92 10.83 7.52 1.83 1.35 4.1 3 6.47 3 2.38 0 4.64-1.66 6.47-3 3.55-2.57 7.21-5.05 10.85-7.52a12.85 12.85 0 0 0 2.18-1.9zm74.01-10.83l-6.43 7.91a7.86 7.86 0 0 1-5.58 2.66H548a4.9 4.9 0 0 1-4.88-4.88V83.61a4.9 4.9 0 0 1 4.88-4.88h7a4.9 4.9 0 0 1 4.88 4.88v.7h11.85a4.9 4.9 0 0 1 4.88 4.88v3.49h4.18a3.88 3.88 0 0 1 3.62 2.07 3.42 3.42 0 0 1 .33 1.48 4.28 4.28 0 0 1-1 2.61zm-9.91-6.17v-3.48a2.09 2.09 0 0 0-2.09-2.09h-12.55a2.09 2.09 0 0 1-2.1-2.1v-1.39a2.09 2.09 0 0 0-2.09-2.09h-7a2.09 2.09 0 0 0-2.09 2.09v18.59l5.58-6.86a7.78 7.78 0 0 1 5.58-2.66zm7 2.79h-23.74a5 5 0 0 0-3.42 1.61l-6.4 7.93a1.52 1.52 0 0 0-.39.87c0 .61.68.76 1.16.76h23.71a5 5 0 0 0 3.42-1.63l6.41-7.91a1.4 1.4 0 0 0 .39-.85c.03-.63-.69-.78-1.17-.78zm65.34-.18A12.55 12.55 0 0 1 635 107.74v2.88h5.58a1.39 1.39 0 1 1 0 2.79h-13.93a1.39 1.39 0 0 1 0-2.79h5.58v-2.88a12.55 12.55 0 0 1-11.16-12.46v-2.79a1.39 1.39 0 0 1 2.79 0v2.79a9.76 9.76 0 1 0 19.52 0v-2.79a1.39 1.39 0 0 1 2.79 0zm-5.58 0a7 7 0 1 1-13.95 0V84.13a7 7 0 0 1 13.95 0z"/><path class="cls-2" d="M136 192h60v12.5h-60z"/><path class="cls-2" d="M116 204h100v12H116zm380-12h60v12.5h-60z"/><path class="cls-2" d="M476 204h100v12H476z"/><path class="cls-7" d="M303.09 235.21l-7.2-9.44a2.89 2.89 0 0 1-.48-2.08 2.81 2.81 0 0 1 1-1.84 2.54 2.54 0 0 1 2-.56 2.74 2.74 0 0 1 1.88 1.12l4.72 6.16 11.84-19a2.88 2.88 0 0 1 1.72-1.24 2.64 2.64 0 0 1 2.12.36 2.88 2.88 0 0 1 1.24 1.72 2.65 2.65 0 0 1-.36 2.12l-14 22.4a2.51 2.51 0 0 1-2.24 1.28l-.08.08a2.59 2.59 0 0 1-2.16-1.08z"/><path class="cls-8" d="M684.55 231.29a2.35 2.35 0 0 1-.72 1.72 2.63 2.63 0 0 1-3.44 0l-5.28-6.08-5.28 6.07a2.43 2.43 0 0 1-3.44-3.44l5.52-6.24-5.52-6.32a2.43 2.43 0 0 1 3.44-3.44l5.28 6.08 5.28-6.08a2.63 2.63 0 0 1 3.44 0 2.41 2.41 0 0 1 0 3.44l-5.52 6.32 5.52 6.24a2.35 2.35 0 0 1 .72 1.73z"/><path class="cls-2" d="M856 192h60v12.5h-60z"/><path class="cls-2" d="M836 204h100v12H836z"/><path class="cls-8" d="M1044.55 231.29a2.35 2.35 0 0 1-.72 1.72 2.63 2.63 0 0 1-3.44 0l-5.28-6.08-5.28 6.08a2.43 2.43 0 0 1-3.44-3.44l5.52-6.24-5.52-6.32a2.43 2.43 0 0 1 3.44-3.44l5.28 6.08 5.28-6.08a2.63 2.63 0 0 1 3.44 0 2.41 2.41 0 0 1 0 3.44l-5.52 6.32 5.52 6.24a2.35 2.35 0 0 1 .72 1.72z"/></svg>