<svg xmlns="http://www.w3.org/2000/svg" viewBox="0 0 2540 800"><path d="M696.9 579h-19.8l149 149h19.8zm50 0h-21.8l149 149h21.8zm50 0h-21.8l149 149h21.8zm-200 0h-21.8l149 149h21.8zm250 0h-21.8l149 149h21.8zm-300 0h-21.8l149 149h21.8zm102 0h-23.8l149 149h23.8zm399 0h-21.8l149 149h21.8zm50 0h-21.8l149 149h21.8zm-199 0h-23.8l149 149h23.8zm99 0h-21.8l149 149h21.8zm-50 0h-20.8l149 149h20.8zm-751 0h-20.8l149 149h20.8zm-101 0H83v8.9L223.1 728h21.8zm52 0h-23.8l149 149h23.8zm-24.8 149h21.8L83 666.1v21.8zm373.8-149h-21.8l149 149h21.8zm653 0h-23.8l149 149h23.8zM83 616.1v21.8l90.1 90.1h21.8zm2365-17.2V579h-19.9zM398.9 579h-23.8l149 149h23.8zm48 0h-19.8l149 149h19.8zm-150 0h-21.8l149 149h21.8zm-50 0h-21.8l149 149h21.8zm100 0h-21.8l149 149h21.8zm1751 0h-21.8l149 149h21.8zm-50 0h-21.8l149 149h21.8zm102 0h-23.8l149 149h23.8zm-152 0h-21.8l149 149h21.8zM83 716.1V728h11.9zM1947.9 579h-19.8l149 149h19.8zm-48 0h-23.8l149 149h23.8zm298 0h-19.8l149 149h19.8zm-1000 0h-19.8l149 149h19.8zm1150 0h-21.8L2448 700.9v-21.8zm-100 0h-21.8l149 149h21.8zm50 0h-21.8l149 149h21.8zm-450 0h-21.8l149 149h21.8zm552 0h-23.8l71.9 71.9v-23.8zm-602 0h-21.8l149 149h21.8zm-450 0h-21.8l149 149h21.8zm149 0h-21.8l149 149h21.8zm-50 0h-18.8l149 149h18.8zm-199 0h-21.8l149 149h21.8zm50 0h-21.8l149 149h21.8zm102 0h-23.8l149 149h23.8zm147 0h-21.8l149 149h21.8zm151 0h-20.8l149 149h20.8zm50 0h-21.8l149 149h21.8zm-99 0h-23.8l149 149h23.8zm-52 0h-21.8l149 149h21.8zm-1113-413h-21.8l270 270h21.8zm200 0h-21.8l270 270h21.8zm-98 0h-23.8l270 270h23.8zm-52 0h-21.8l270 270h21.8zm250 0h-21.8l270 270h21.8zm-150 0h-19.8l270 270h19.8zm100 0h-21.8l270 270h21.8zm353 0h-23.8l270 270h23.8zm-102 0h-21.8l270 270h21.8zm-100 0h-20.8l270 270h20.8zm-49 0h-23.8l270 270h23.8zm99 0h-21.8l270 270h21.8zm100 0h-21.8l270 270h21.8zM83 216.1v21.8L281.1 436h21.8zm50.9-50.1h-20.8l270 270h20.8zM83 266.1v21.8L231.1 436h21.8zM84.9 166H83v21.9L331.1 436h23.8zM2448 198.9V166h-32.9zM2184.9 166h-21.8l270 270h14.9v-6.9zm-1951 0h-21.8l270 270h21.8zm102 0h-23.8l270 270h23.8zm-152 0h-21.8l270 270h21.8zm200 0h-19.8l270 270h19.8zm-100 0h-21.8l270 270h21.8zm150 0h-21.8l270 270h21.8zM181.1 436h21.8L83 316.1v21.8zm1803.8-270h-21.8l270 270h21.8zm-50 0h-21.8l270 270h21.8zm100 0h-21.8l270 270h21.8zm52 0h-23.8l270 270h23.8zm-952 0h-19.8l270 270h19.8zm702 0h-23.8l270 270h23.8zm550 0h-21.8l82.9 82.9v-21.8zm-602 0h-21.8l270 270h21.8zm552 0h-23.8L2448 300.9v-23.8zm-102 0h-21.8L2448 400.9v-21.8zm-100 0h-19.8l270 270h19.8zm150 0h-21.8L2448 350.9v-21.8zm-400 0h-19.8l270 270h19.8zm-548 0h-23.8l270 270h23.8zm47 0h-18.8l270 270h18.8zm50 0h-21.8l270 270h21.8zm-149 0h-21.8l270 270h21.8zm-50 0h-21.8l270 270h21.8zm-50 0h-21.8l270 270h21.8zm550 0h-21.8l270 270h21.8zm-100 0h-20.8l270 270h20.8zm50 0h-21.8l270 270h21.8zm-201 0h-21.8l270 270h21.8zm50 0h-21.8l270 270h21.8zm52 0h-23.8l270 270h23.8zM123.1 433h21.8L83 371.1v21.8zM83 421.1V433h11.9z" fill="#F9F9F9"/><path d="M194.6 188L179 203.6 163.4 188H102v80h150v-80zm147.4 0v23.9l16.1 16.1-16.1 16.1V268h150v-80zm240 0v23.9l16.1 16.1-16.1 16.1V268h150v-80zm92.6 140L659 343.6 643.4 328H582v80h150v-80zm387.4 0v23.9l16.1 16.1-16.1 16.1V408h150v-80zm-585.9 40l15.9-15.9V328H342v80h150v-24.1zm-41.5 240L419 623.6 403.4 608H342v80h150v-80zM822 328v80h60.6l16.4-16.4 16.4 16.4H972v-80zm0 280v23.9l16.1 16.1-16.1 16.1V688h150v-80zm332.6 0l-15.6 15.6-15.6-15.6H1062v80h150v-80zm147.4 0v23.9l16.1 16.1-16.1 16.1V688h150v-80zm240 0v23.9l16.1 16.1-16.1 16.1V688h150v-80zm250-280v80h60.6l16.4-16.4 16.4 16.4h56.6v-80zm92.6 280l-15.6 15.6-15.6-15.6H1792v80h150v-80z" fill="#FFF"/><path d="M194.6 187.4L179 203l-15.6-15.6h-60.5v80h150v-80zm148.3 0v24.5L359 228l-16.1 16.1v23.3h150v-80zm240 0v24.5L599 228l-16.1 16.1v23.3h150v-80zm91.7 140L659 343l-15.6-15.6h-60.5v80h150v-80zm388.3 0v24.5L1079 368l-16.1 16.1v23.3h150v-80zM477 368l15.9-15.9v-24.7h-150v80h150v-23.5zm-42.4 239.4L419 623l-15.6-15.6h-60.5v80h150v-80zm388.3-280v80h59.7L899 391l16.4 16.4h57.5v-80zm0 280v24.5L839 648l-16.1 16.1v23.3h150v-80zm331.7 0L1139 623l-15.6-15.6h-60.5v80h150v-80zm148.3 0v24.5L1319 648l-16.1 16.1v23.3h150v-80zm240 0v24.5L1559 648l-16.1 16.1v23.3h150v-80zm250-280v80h59.7L1869 391l16.4 16.4h57.5v-80zm91.7 280L1869 623l-15.6-15.6h-60.5v80h150v-80z" fill="#FFF" fill-opacity=".1"/><path fill="#04C579" fill-opacity=".1" stroke="#04C579" stroke-miterlimit="10" d="M102.9 46.4h150v80h-150z"/><path fill="#757575" fill-opacity=".1" stroke="#757575" stroke-miterlimit="10" d="M1792.9 467.4v24.5L1809 508l-16.1 16.1v23.3h150v-80z"/><text transform="translate(139.431 91.693)" fill="#04C579" font-family="'HelveticaNeue'" font-size="18">start app.</text><text transform="translate(142.294 230.757)" fill="#29ABE2" font-family="'HelveticaNeue'" font-size="18">initView()</text><text transform="translate(368.965 230.757)" fill="#29ABE2" font-family="'HelveticaNeue'" font-size="18">createView()</text><text transform="translate(605.95 230.757)" fill="#29ABE2" font-family="'HelveticaNeue'" font-size="18">updateView()</text><text transform="translate(371.962 370.757)" fill="#29ABE2" font-family="'HelveticaNeue'" font-size="18">focusView()</text><text transform="translate(610.297 370.757)" fill="#29ABE2" font-family="'HelveticaNeue'" font-size="18">selectView()</text><text transform="translate(840.289 370.757)" fill="#29ABE2" font-family="'HelveticaNeue'" font-size="18">unselectView()</text><text transform="translate(1096.957 370.757)" fill="#29ABE2" font-family="'HelveticaNeue'" font-size="18">hideView()</text><path fill="#757575" fill-opacity=".1" stroke="#757575" stroke-miterlimit="10" d="M342.9 467.4h150v80h-150z"/><text transform="translate(367.632 510.757)" fill="#757575" font-family="'HelveticaNeue'" font-size="18">new window</text><text transform="translate(848.965 650.757)" fill="#29ABE2" font-family="'HelveticaNeue'" font-size="18">createView()</text><text transform="translate(1085.95 650.757)" fill="#29ABE2" font-family="'HelveticaNeue'" font-size="18">updateView()</text><text transform="translate(382.294 650.757)" fill="#29ABE2" font-family="'HelveticaNeue'" font-size="18">initView()</text><text transform="translate(1330.296 650.757)" fill="#29ABE2" font-family="'HelveticaNeue'" font-size="18">selectView()</text><text transform="translate(1571.961 650.757)" fill="#29ABE2" font-family="'HelveticaNeue'" font-size="18">focusView()</text><text transform="translate(1813.96 650.757)" fill="#29ABE2" font-family="'HelveticaNeue'" font-size="18">destroyView()</text><text transform="translate(1826.101 510.757)" fill="#757575" font-family="'HelveticaNeue'" font-size="18">close app.</text><text transform="translate(1813.96 370.757)" fill="#29ABE2" font-family="'HelveticaNeue'" font-size="18">destroyView()</text><text transform="translate(2072.959 503.757)"><tspan x="0" y="0" fill="#04C579" font-family="'HelveticaNeue'" font-size="18">All views</tspan><tspan x="3.3" y="21.6" fill="#04C579" font-family="'HelveticaNeue'" font-size="18">closed?</tspan></text><text transform="translate(2300.764 510.757)" fill="#04C579" font-family="'HelveticaNeue'" font-size="18">app. closed</text><path fill="#04C579" d="M174 126h10v58h-10z"/><path fill="#04C579" d="M167.8 182l11.2 11.2 11.2-11.2z"/><path fill="#29ABE2" fill-opacity=".1" stroke="#29ABE2" stroke-miterlimit="10" d="M194.6 187.4L179 203l-15.6-15.6h-60.5v80h150v-80zm148.3 0v24.5L359 228l-16.1 16.1v23.3h150v-80zm240 0v24.5L599 228l-16.1 16.1v23.3h150v-80zm91.7 140L659 343l-15.6-15.6h-60.5v80h150v-80zm388.3 0v24.5L1079 368l-16.1 16.1v23.3h150v-80zM477 368l15.9-15.9v-24.7h-150v80h150v-23.5z"/><path fill="#29ABE2" d="M252 223h89v10h-89z"/><path fill="#29ABE2" d="M339 238.8l11.2-11.2-11.2-11.2zM492 223h89v10h-89z"/><path fill="#29ABE2" d="M579 238.8l11.2-11.2-11.2-11.2z"/><path fill="#29ABE2" fill-opacity=".1" stroke="#29ABE2" stroke-miterlimit="10" d="M434.6 607.4L419 623l-15.6-15.6h-60.5v80h150v-80zm388.3-280v80h59.7L899 391l16.4 16.4h57.5v-80zm0 280v24.5L839 648l-16.1 16.1v23.3h150v-80zm331.7 0L1139 623l-15.6-15.6h-60.5v80h150v-80zm148.3 0v24.5L1319 648l-16.1 16.1v23.3h150v-80zm240 0v24.5L1559 648l-16.1 16.1v23.3h150v-80zm250-280v80h59.7L1869 391l16.4 16.4h57.5v-80zm91.7 280L1869 623l-15.6-15.6h-60.5v80h150v-80z"/><path fill="#04C579" fill-opacity=".1" stroke="#04C579" stroke-miterlimit="10" d="M2032.9 467.4v24.5L2049 508l-16.1 16.1v23.3h150v-80zm240 0v24.5L2289 508l-16.1 16.1v23.3h150v-80z"/><path fill="#29ABE2" d="M654 266h10v58h-10z"/><path fill="#29ABE2" d="M647.8 322l11.2 11.2 11.2-11.2zM493 362h89v10h-89z"/><path fill="#29ABE2" d="M495 356.4l-11.2 11.2 11.2 11.2z"/><path fill="#757575" d="M414 547h10v58h-10z"/><path fill="#757575" d="M407.8 603l11.2 11.2 11.2-11.2z"/><path fill="#29ABE2" d="M414 407h10v60h-10zm78 236h329v10H492z"/><path fill="#29ABE2" d="M819 658.8l11.2-11.2-11.2-11.2zM894 409h10v198h-10z"/><path fill="#29ABE2" d="M910.2 411L899 399.8 887.8 411zm61.8-48h89v10h-89z"/><path fill="#29ABE2" d="M1059 378.8l11.2-11.2-11.2-11.2zm75 29.2h10v198h-10z"/><path fill="#29ABE2" d="M1127.8 604l11.2 11.2 11.2-11.2zm84.2 39h89v10h-89z"/><path fill="#29ABE2" d="M1299 658.8l11.2-11.2-11.2-11.2zm153-15.8h89v10h-89z"/><path fill="#29ABE2" d="M1539 658.8l11.2-11.2-11.2-11.2zm75-155.8h177v10h-177z"/><path fill="#29ABE2" d="M1789 518.8l11.2-11.2-11.2-11.2zM1614 504h10v103h-10z"/><path fill="#757575" d="M1864 547h10v58h-10z"/><path fill="#757575" d="M1857.8 603l11.2 11.2 11.2-11.2zm6.2-194h10v58h-10z"/><path fill="#757575" d="M1880.2 411l-11.2-11.2-11.2 11.2zm62.8 92h89v10h-89z"/><path fill="#757575" d="M2030 518.8l11.2-11.2-11.2-11.2z"/><path fill="#04C579" d="M2183 503h89v10h-89z"/><path fill="#04C579" d="M2270 518.8l11.2-11.2-11.2-11.2z"/><text transform="translate(95.942 417.757)" fill="#757575" font-family="'HelveticaNeue'" font-size="18">View 1</text><text transform="translate(95.942 707.757)" fill="#757575" font-family="'HelveticaNeue'" font-size="18">View 2</text></svg>