<svg id="Laag_1" data-name="Laag 1" xmlns="http://www.w3.org/2000/svg" viewBox="0 0 692 240"><defs><style>.cls-1{fill:#fff}.cls-2{fill:#4f4e4e}.cls-3{fill:#989999}.cls-4{fill:#5f4394}.cls-5{fill:#717170}.cls-6{fill:#434342}.cls-7{fill:#4dad33}.cls-8{fill:#b82c23}</style></defs><title>flow</title><path class="cls-1" d="M6 6h320v180H6z"/><path class="cls-2" d="M326 6v180H6V6h320m6-6H0v192h332V0z"/><path class="cls-1" d="M366 6h320v180H366z"/><path class="cls-2" d="M686 6v180H366V6h320m6-6H360v192h332V0z"/><path class="cls-3" d="M26.93 66h87.87v65.65H26.93zM6 66h11.84v65.65H6zm311.8 0h8.2v65.65h-8.2z"/><path class="cls-4" d="M123.89 66h87.87v65.65h-87.87z"/><path class="cls-3" d="M220.84 66h87.87v65.65h-87.87zm-60.27-40h69.69v15.91h-69.69z"/><path class="cls-5" d="M236.31 26H306v15.91h-69.69z"/><path class="cls-3" d="M520.57 26h69.69v15.91h-69.69z"/><path class="cls-5" d="M596.31 26H666v15.91h-69.69z"/><path class="cls-3" d="M406 66h226.79v12.13H406zm0 15.41h226.79v12.13H406zm0 15.41h226.79v12.13H406zm0 15.41h226.79v12.13H406zm0 15.41h226.79v12.13H406zm0 15.41h226.79v12.13H406z"/><path class="cls-4" d="M406 158.46h226.79v12.13H406z"/><path class="cls-3" d="M406 173.87h226.79V186H406zM645.35 68.14h1.3v109.58h-1.3z"/><path class="cls-6" d="M643.39 145.19h5.21v25.68h-5.21z"/><path class="cls-2" d="M136 192h60v12.5h-60z"/><path class="cls-2" d="M116 204h100v12H116zm380-12h60v12.5h-60z"/><path class="cls-2" d="M476 204h100v12H476z"/><path class="cls-7" d="M303.09 235.21l-7.2-9.44a2.89 2.89 0 0 1-.48-2.08 2.81 2.81 0 0 1 1-1.84 2.54 2.54 0 0 1 2-.56 2.74 2.74 0 0 1 1.88 1.12l4.72 6.16 11.84-19a2.88 2.88 0 0 1 1.72-1.24 2.64 2.64 0 0 1 2.12.36 2.88 2.88 0 0 1 1.24 1.72 2.65 2.65 0 0 1-.36 2.12l-14 22.4a2.51 2.51 0 0 1-2.24 1.28l-.08.08a2.59 2.59 0 0 1-2.16-1.08z"/><path class="cls-8" d="M684.55 231.29a2.35 2.35 0 0 1-.72 1.72 2.63 2.63 0 0 1-3.44 0l-5.28-6.08-5.28 6.07a2.43 2.43 0 0 1-3.44-3.44l5.52-6.24-5.52-6.32a2.43 2.43 0 0 1 3.44-3.44l5.28 6.08 5.28-6.08a2.63 2.63 0 0 1 3.44 0 2.41 2.41 0 0 1 0 3.44l-5.52 6.32 5.52 6.24a2.35 2.35 0 0 1 .72 1.73z"/></svg>