<svg id="Laag_1" data-name="Laag 1" xmlns="http://www.w3.org/2000/svg" viewBox="0 0 1052 240"><defs><style>.cls-1{fill:#fff}.cls-2{fill:#4f4e4e}.cls-3{fill:#efeeed}.cls-4{fill:#9f90c5}.cls-5{opacity:.2}.cls-6{fill:#010101}.cls-7{fill:#909090}</style></defs><title>fullscreen-sidebar</title><path class="cls-1" d="M6 6h320v180H6z"/><path class="cls-2" d="M326 6v180H6V6h320m6-6H0v192h332V0z"/><path class="cls-1" d="M366 6h320v180H366z"/><path class="cls-2" d="M686 6v180H366V6h320m6-6H360v192h332V0z"/><path class="cls-1" d="M726 6h320v180H726z"/><path class="cls-2" d="M1046 6v180H726V6h320m6-6H720v192h332V0zM136 192h60v12.5h-60z"/><path class="cls-2" d="M116 204h100v12H116zm380-12h60v12.5h-60z"/><path class="cls-2" d="M476 204h100v12H476zm380-12h60v12.5h-60z"/><path class="cls-2" d="M836 204h100v12H836z"/><path class="cls-3" d="M726 6h320v180H726z"/><path class="cls-4" d="M6 6h320v180H6z"/><g class="cls-5"><path class="cls-6" d="M108.49 108.74V83.22h4.64v21.13H125v4.39zm19.37-21.31v-4.64h4.82v4.64zm.14 21.31V90h4.57v18.72zm19.15 0h-4.79L135.42 90h4.75l4.68 13.18L149.28 90h4.64zm25.24-9.21a3.27 3.27 0 0 0 0 .47v.79h-12.56a6.12 6.12 0 0 0 .34 2.05 4 4 0 0 0 1 1.62 5.19 5.19 0 0 0 1.17.81 3.47 3.47 0 0 0 1.6.34 5.45 5.45 0 0 0 1.6-.2 2.75 2.75 0 0 0 1.13-.7 3.48 3.48 0 0 0 .9-1.58h4.32a5.2 5.2 0 0 1-.56 1.82 8.18 8.18 0 0 1-1 1.64 6.74 6.74 0 0 1-2.84 2 9.91 9.91 0 0 1-3.46.61 8.26 8.26 0 0 1-3.37-.63 8.57 8.57 0 0 1-4.68-5 11.58 11.58 0 0 1-.74-4.21 12.74 12.74 0 0 1 .67-4.19 8.53 8.53 0 0 1 2-3.29 7.78 7.78 0 0 1 2.54-1.73 8.58 8.58 0 0 1 3.44-.65 9 9 0 0 1 3.89.85 7.11 7.11 0 0 1 3 2.61 8.26 8.26 0 0 1 1.33 3.15 19.07 19.07 0 0 1 .28 3.42zm-4.5-2a4.81 4.81 0 0 0-1.15-3.28 3.27 3.27 0 0 0-1.17-.79 4.39 4.39 0 0 0-1.67-.29 4.06 4.06 0 0 0-1.84.4 3.73 3.73 0 0 0-1.3 1 3.89 3.89 0 0 0-.72 1.3 6.2 6.2 0 0 0-.25 1.62zm24.95-9.99v21.2h-4.64v-21.2h-7.56v-4.32h19.76v4.32zm22.28 21.2H210l-8.46-25.52h4.93l6.19 19.48 6.16-19.48h4.68z"/></g><path class="cls-4" d="M458.44 32H686v128H458.44z"/><g class="cls-5"><path class="cls-6" d="M531.33 105.06V86.91h3.3v15h8.42v3.12zm13.77-15.15V86.6h3.43v3.3zm.1 15.15V91.75h3.25v13.31zm13.62 0h-3.4l-4.94-13.31h3.38l3.33 9.37 3.15-9.37h3.3zm17.95-6.55a2.32 2.32 0 0 0 0 .33v.56h-8.91a4.35 4.35 0 0 0 .24 1.46 2.87 2.87 0 0 0 .73 1.15 3.69 3.69 0 0 0 .83.58 2.47 2.47 0 0 0 1.14.24 3.87 3.87 0 0 0 1.14-.14 2 2 0 0 0 .81-.5 2.47 2.47 0 0 0 .64-1.13h3.07a3.7 3.7 0 0 1-.4 1.29 5.82 5.82 0 0 1-.73 1.16 4.79 4.79 0 0 1-2 1.43 7 7 0 0 1-2.46.43 5.88 5.88 0 0 1-2.39-.45 6.09 6.09 0 0 1-3.33-3.52 8.23 8.23 0 0 1-.52-3 9.06 9.06 0 0 1 .47-3 6.06 6.06 0 0 1 1.45-2.34 5.53 5.53 0 0 1 1.8-1.23 6.1 6.1 0 0 1 2.45-.46 6.42 6.42 0 0 1 2.76.6 5.05 5.05 0 0 1 2.1 1.86 5.87 5.87 0 0 1 .95 2.24 13.56 13.56 0 0 1 .16 2.44zm-3.2-1.43a3.42 3.42 0 0 0-.82-2.33 2.32 2.32 0 0 0-.83-.56 3.12 3.12 0 0 0-1.19-.2 2.88 2.88 0 0 0-1.31.28 2.65 2.65 0 0 0-.92.74 2.77 2.77 0 0 0-.51.92 4.41 4.41 0 0 0-.18 1.15zM591.31 90v15.08H588V90h-5.38v-3.09h14.05V90zm15.84 15.06h-3.64l-6-18.15H601l4.4 13.85 4.38-13.85h3.33z"/></g><rect class="cls-3" x="372" y="12" width="86.27" height="168" rx="2" ry="2"/><path class="cls-7" d="M454.27 181H376a5 5 0 0 1-5-5V16a5 5 0 0 1 5-5h78.27a5 5 0 0 1 5 5v160a5 5 0 0 1-5 5zM376 13a3 3 0 0 0-3 3v160a3 3 0 0 0 3 3h78.27a3 3 0 0 0 3-3V16a3 3 0 0 0-3-3z"/><path class="cls-3" d="M12 128h60v52H12zm64 0h60v52H76zm64 0h60v52h-60zm64 0h60v52h-60zm64 0h58v52h-58z"/><g class="cls-5"><path class="cls-6" d="M870.41 108.76l-1.66-4.9H858.6l-1.66 4.9h-4.68l9-25.52h5.08l9 25.52zm-6.73-19.84L860 99.69h7.27zm33.59 2.49a9.34 9.34 0 0 1-.58 3.35 6.94 6.94 0 0 1-1.69 2.59 7.75 7.75 0 0 1-2.84 1.65 11.7 11.7 0 0 1-3.89.59h-5.4v9.14h-4.61V83.24h10a11.7 11.7 0 0 1 3.89.59 7.9 7.9 0 0 1 2.85 1.66 6.79 6.79 0 0 1 1.71 2.57 9.34 9.34 0 0 1 .56 3.35zm-4.68 0a4.19 4.19 0 0 0-1.08-3 4.49 4.49 0 0 0-3.42-1.15h-5.22v8.24h5.22a4.54 4.54 0 0 0 3.42-1.13 4.13 4.13 0 0 0 1.08-2.92zm27.14 0a9.34 9.34 0 0 1-.58 3.35 6.94 6.94 0 0 1-1.71 2.59 7.75 7.75 0 0 1-2.82 1.65 11.7 11.7 0 0 1-3.89.59h-5.4v9.14h-4.61V83.24h10a11.7 11.7 0 0 1 3.89.59 7.9 7.9 0 0 1 2.83 1.66 6.79 6.79 0 0 1 1.71 2.57 9.34 9.34 0 0 1 .58 3.35zm-4.68 0a4.19 4.19 0 0 0-1.08-3 4.49 4.49 0 0 0-3.42-1.15h-5.22v8.24h5.22a4.54 4.54 0 0 0 3.45-1.08 4.13 4.13 0 0 0 1.05-2.97z"/></g></svg>