<svg id="Laag_1" data-name="Laag 1" xmlns="http://www.w3.org/2000/svg" viewBox="0 0 610 240"><defs><style>.cls-1{fill:#4f4e4e}.cls-2{fill:#8e8f8f}</style></defs><title>information-density</title><path class="cls-1" d="M476.95 84.58H433.3a4.72 4.72 0 0 0-4.72 4.72v22.41a4.72 4.72 0 0 0 4.72 4.72h43.65a4.72 4.72 0 0 0 4.72-4.72V89.3a4.72 4.72 0 0 0-4.72-4.72zm-4.83 30h-39.21V86.45h39.21zm4.53-11.21a2.85 2.85 0 1 1 2.85-2.85 2.85 2.85 0 0 1-2.85 2.84zM136 192h60v12.5h-60zM326 6v180H6V6h320m6-6H0v192h332V0z"/><path class="cls-1" d="M116 204h100v12H116z"/><path class="cls-2" d="M503 101.5a.51.51 0 0 1-.24-.06l-1-.53a.5.5 0 0 1 .47-.88l1 .53a.5.5 0 0 1-.24.94zm-2.74-1.5a.5.5 0 0 1-.26 0l-1.74-1a.5.5 0 1 1 .47-.88l1.76.95a.5.5 0 0 1-.24.94zm-3.52-1.89a.51.51 0 0 1-.24-.06l-1.76-.95a.5.5 0 1 1 .47-.88l1.76.95a.5.5 0 0 1-.24.94zm-3.52-1.89a.5.5 0 0 1-.24-.06l-1.76-.95a.5.5 0 0 1 .47-.88l1.76.95a.5.5 0 0 1-.24.94zm-3.52-1.89a.5.5 0 0 1-.24-.06l-1.76-.95a.5.5 0 1 1 .47-.88l1.76.95a.5.5 0 0 1-.24.94zm-3.52-1.89a.5.5 0 0 1-.24-.06l-1.76-.95a.5.5 0 1 1 .47-.88l1.76.95a.5.5 0 0 1-.24.94zm-3.52-1.89a.5.5 0 0 1-.24-.06l-1.76-.95a.5.5 0 0 1 .47-.88l1.76.95a.5.5 0 0 1-.24.94zm-3.52-1.89a.5.5 0 0 1-.24-.06l-1.76-.95a.5.5 0 0 1 .47-.88l1.76.95a.5.5 0 0 1-.24.94zm-3.52-1.89a.5.5 0 0 1-.24-.06l-1.76-.95a.5.5 0 1 1 .47-.88l1.76.95a.5.5 0 0 1-.24.94zm-3.52-1.89a.5.5 0 0 1-.24-.06l-1.76-.95a.5.5 0 1 1 .47-.88l1.76.95a.5.5 0 0 1-.24.94zM468.55 83a.5.5 0 0 1-.24-.06l-1.75-.94a.5.5 0 1 1 .47-.88l1.76.95a.5.5 0 0 1-.24.94zM465 81.08a.5.5 0 0 1-.24-.06l-1.76-.94a.5.5 0 1 1 .47-.88l1.76.95a.5.5 0 0 1-.24.94zm-3.52-1.89a.5.5 0 0 1-.24-.06l-1.76-.95a.5.5 0 0 1 .47-.88l1.76.95a.5.5 0 0 1-.24.94zm-3.48-1.9a.5.5 0 0 1-.24-.06l-1.76-.94a.5.5 0 0 1 .47-.88l1.76.95a.5.5 0 0 1-.24.94zm-3.52-1.89a.5.5 0 0 1-.24-.06l-1.76-.95a.5.5 0 1 1 .47-.88l1.76.95a.5.5 0 0 1-.24.94zm-3.52-1.89a.51.51 0 0 1-.24-.06l-1.76-.95a.5.5 0 1 1 .47-.88l1.76.95a.5.5 0 0 1-.24.94zm-3.52-1.89a.5.5 0 0 1-.24-.06l-1.76-.95a.5.5 0 1 1 .47-.88l1.76.95a.5.5 0 0 1-.24.94zm-3.52-1.89a.51.51 0 0 1-.24-.06l-1.76-.95a.5.5 0 1 1 .47-.88l1.76.95a.5.5 0 0 1-.24.94zm-3.52-1.89a.5.5 0 0 1-.24-.06l-1.76-.95a.5.5 0 0 1 .47-.88l1.76.95a.5.5 0 0 1-.24.94zm-3.52-1.89a.51.51 0 0 1-.24-.06l-1.76-.95a.5.5 0 1 1 .47-.88l1.76.95a.5.5 0 0 1-.24.94zM433.32 64a.5.5 0 0 1-.24-.06l-1.75-.94a.5.5 0 1 1 .47-.88l1.76.95a.5.5 0 0 1-.24.94zm-3.52-1.89a.51.51 0 0 1-.24-.06l-1.76-.95a.5.5 0 1 1 .47-.88l1.76.95a.5.5 0 0 1-.24.94zm-3.52-1.89a.5.5 0 0 1-.24-.06l-1.76-.95a.5.5 0 0 1 .47-.88l1.76.95a.5.5 0 0 1-.24.94zm-3.52-1.89a.5.5 0 0 1-.24-.06l-1.76-.95a.5.5 0 1 1 .47-.88l1.76.95a.5.5 0 0 1-.24.94zm-3.52-1.89a.5.5 0 0 1-.24-.06l-1.76-.95a.5.5 0 1 1 .47-.88l1.76.95a.5.5 0 0 1-.24.94zm-3.52-1.89a.5.5 0 0 1-.24-.06l-1.76-.95a.5.5 0 1 1 .47-.88l1.76.95a.5.5 0 0 1-.24.94zm-3.52-1.89a.5.5 0 0 1-.24-.06l-1.76-.95a.5.5 0 1 1 .47-.88l1.76.95a.5.5 0 0 1-.24.94zm-3.52-1.89a.5.5 0 0 1-.24-.06l-1.76-.95a.5.5 0 0 1 .47-.88l1.76.95a.5.5 0 0 1-.24.94zm-3.52-1.89a.5.5 0 0 1-.24-.06l-1.76-.95a.5.5 0 0 1 .47-.88l1.76.95a.5.5 0 0 1-.24.94zM401.62 47a.5.5 0 0 1-.24-.06l-1.76-.94a.5.5 0 1 1 .47-.88l1.76.95a.5.5 0 0 1-.24.94zm-3.52-1.89a.5.5 0 0 1-.24-.06l-1.76-.95a.5.5 0 1 1 .47-.88l1.76.95a.5.5 0 0 1-.24.94zm-3.52-1.89a.5.5 0 0 1-.24-.06l-1.76-.95a.5.5 0 1 1 .47-.88l1.76.95a.5.5 0 0 1-.24.94zM391 41.3a.51.51 0 0 1-.24-.06l-1.76-.95a.5.5 0 1 1 .47-.88l1.76.95a.5.5 0 0 1-.24.94zm-3.52-1.89a.5.5 0 0 1-.24-.06l-1.76-.95a.5.5 0 0 1 .47-.88l1.76.95a.5.5 0 0 1-.24.94zm-3.48-1.9a.51.51 0 0 1-.24-.06L382 36.5a.5.5 0 1 1 .47-.88l1.76.95a.5.5 0 0 1-.24.94zm-3.52-1.89a.5.5 0 0 1-.24-.06l-1.76-.95a.5.5 0 1 1 .47-.88l1.76.95a.5.5 0 0 1-.24.94zm-3.48-1.9a.51.51 0 0 1-.24-.06l-1.76-.95a.5.5 0 1 1 .47-.88l1.76.95a.5.5 0 0 1-.24.94zm-3.52-1.89a.5.5 0 0 1-.24-.06l-1.76-.95a.5.5 0 0 1 .47-.88l1.76.95a.5.5 0 0 1-.24.94zm-3.52-1.89a.51.51 0 0 1-.24-.06l-1.76-.95a.5.5 0 1 1 .47-.88l1.76.95a.5.5 0 0 1-.24.94zM366.39 28a.5.5 0 0 1-.24-.06l-1.76-.94a.5.5 0 1 1 .47-.88l1.76.95a.5.5 0 0 1-.24.94zm-3.52-1.89a.51.51 0 0 1-.24-.06l-1.76-.95a.5.5 0 1 1 .47-.88l1.76.95a.5.5 0 0 1-.24.94zm-3.52-1.89a.5.5 0 0 1-.24-.06l-1.76-.95a.5.5 0 1 1 .47-.88l1.76.95a.5.5 0 0 1-.24.94zm-3.52-1.89a.5.5 0 0 1-.24-.06l-1.76-.95a.5.5 0 0 1 .47-.88l1.76.95a.5.5 0 0 1-.24.94zm-3.52-1.89a.5.5 0 0 1-.24-.06l-1.76-.95a.5.5 0 0 1 .47-.88l1.76.95a.5.5 0 0 1-.24.94zm-3.52-1.89a.5.5 0 0 1-.24-.06l-1.76-.95a.5.5 0 1 1 .47-.88l1.76.95a.5.5 0 0 1-.24.94zm-3.52-1.89a.5.5 0 0 1-.24-.06l-1.76-.95a.5.5 0 1 1 .47-.88l1.76.95a.5.5 0 0 1-.24.94zm-3.52-1.89a.5.5 0 0 1-.24-.06l-1.76-.95a.5.5 0 1 1 .47-.88l1.76.95a.5.5 0 0 1-.24.94zm-3.52-1.89a.5.5 0 0 1-.24-.06l-1.76-.95a.5.5 0 0 1 .47-.88l1.76.95a.5.5 0 0 1-.24.94zM334.68 11a.5.5 0 0 1-.24-.06l-1.76-.94a.5.5 0 0 1 .47-.88l1.76.95a.5.5 0 0 1-.24.94zm-3.52-1.89a.5.5 0 0 1-.24-.06l-1.76-.95a.5.5 0 1 1 .47-.88l1.76.95a.5.5 0 0 1-.24.94zm-3.52-1.91a.5.5 0 0 1-.24-.06l-1.76-.95a.5.5 0 1 1 .47-.88l1.76.95a.5.5 0 0 1-.24.94zM326 186.13a.5.5 0 0 1-.21-1l1.81-.85a.5.5 0 0 1 .43.91l-1.81.85a.52.52 0 0 1-.22.09zm3.62-1.71a.5.5 0 0 1-.21-1l1.81-.86a.5.5 0 1 1 .43.9l-1.81.86a.49.49 0 0 1-.22.1zm3.62-1.71a.5.5 0 0 1-.21-1l1.81-.85a.51.51 0 0 1 .67.24.5.5 0 0 1-.24.67l-1.81.85a.52.52 0 0 1-.23.09zm3.62-1.71a.5.5 0 0 1-.21-1l1.81-.85a.5.5 0 0 1 .43.91l-1.81.85a.52.52 0 0 1-.23.09zm3.62-1.71a.5.5 0 0 1-.21-1l1.81-.85a.5.5 0 0 1 .43.91l-1.81.85a.52.52 0 0 1-.23.09zm3.62-1.71a.5.5 0 0 1-.21-1l1.81-.85a.5.5 0 0 1 .43.91l-1.81.85a.52.52 0 0 1-.23.1zm3.62-1.71a.5.5 0 0 1-.21-1l1.81-.86a.5.5 0 1 1 .43.9l-1.81.86a.49.49 0 0 1-.24.11zm3.62-1.71a.5.5 0 0 1-.21-1l1.81-.85a.51.51 0 0 1 .67.24.5.5 0 0 1-.24.67l-1.81.85a.52.52 0 0 1-.24.1zm3.62-1.71a.5.5 0 0 1-.21-1l1.81-.85a.5.5 0 0 1 .43.9l-1.81.85a.49.49 0 0 1-.24.11zm3.62-1.71a.5.5 0 0 1-.21-1l1.81-.85a.5.5 0 1 1 .43.9l-1.81.85a.5.5 0 0 1-.25.11zm3.62-1.71a.5.5 0 0 1-.21-1l1.81-.85a.5.5 0 0 1 .43.9l-1.81.85a.5.5 0 0 1-.25.07zm3.62-1.71a.5.5 0 0 1-.21-1l1.81-.85a.5.5 0 0 1 .43.9l-1.81.85a.5.5 0 0 1-.25.12zm3.62-1.71a.5.5 0 0 1-.21-1l1.81-.85a.5.5 0 0 1 .43.9l-1.81.85a.5.5 0 0 1-.25.12zm3.62-1.71a.5.5 0 0 1-.21-1l1.81-.85a.5.5 0 1 1 .43.9l-1.81.85a.5.5 0 0 1-.28.12zm3.62-1.71a.5.5 0 0 1-.21-1l1.81-.85a.5.5 0 0 1 .43.9l-1.81.85a.5.5 0 0 1-.26.13zm3.62-1.71a.5.5 0 0 1-.21-1l1.81-.85a.5.5 0 0 1 .43.9l-1.81.85a.5.5 0 0 1-.26.13zm3.62-1.71a.5.5 0 0 1-.21-1l1.81-.85a.5.5 0 0 1 .43.9l-1.81.85a.5.5 0 0 1-.27.13zm3.62-1.71a.5.5 0 0 1-.21-1l1.81-.85a.5.5 0 0 1 .43.9l-1.81.85a.5.5 0 0 1-.27.13zm3.62-1.71a.5.5 0 0 1-.21-1l1.81-.85a.5.5 0 1 1 .43.9l-1.81.85a.5.5 0 0 1-.27.13zm3.62-1.71a.5.5 0 0 1-.21-1l1.81-.85a.5.5 0 1 1 .43.9l-1.81.85a.5.5 0 0 1-.28.14zm3.62-1.71a.5.5 0 0 1-.21-1l1.81-.85a.5.5 0 1 1 .43.9l-1.81.85a.5.5 0 0 1-.28.17zm3.62-1.71a.5.5 0 0 1-.21-1l1.81-.85a.5.5 0 1 1 .43.9l-1.81.85a.5.5 0 0 1-.24.14zm3.62-1.71a.5.5 0 0 1-.21-1l1.81-.85a.5.5 0 1 1 .43.9l-1.81.85a.5.5 0 0 1-.28.14zm3.62-1.71a.5.5 0 0 1-.21-1l1.81-.85a.5.5 0 1 1 .43.9l-1.81.85a.5.5 0 0 1-.29.15zm3.62-1.71a.5.5 0 0 1-.21-1l1.81-.85a.5.5 0 1 1 .43.9l-1.81.85a.5.5 0 0 1-.29.15zm3.62-1.71a.5.5 0 0 1-.21-1l1.81-.85a.5.5 0 1 1 .43.9l-1.81.85a.5.5 0 0 1-.29.15zm3.62-1.71a.5.5 0 0 1-.21-1l1.81-.85a.5.5 0 1 1 .43.9l-1.81.85a.5.5 0 0 1-.34.15zm3.62-1.71a.5.5 0 0 1-.21-1l1.81-.85a.5.5 0 1 1 .43.9l-1.81.85a.5.5 0 0 1-.3.14zm3.62-1.71a.5.5 0 0 1-.21-1l1.81-.85a.5.5 0 1 1 .43.9l-1.81.85a.5.5 0 0 1-.3.16zm3.62-1.71a.5.5 0 0 1-.21-1l1.81-.85a.5.5 0 1 1 .43.9l-1.81.85a.5.5 0 0 1-.3.16zm3.62-1.71a.5.5 0 0 1-.21-1l1.81-.85a.5.5 0 0 1 .43.9l-1.81.85a.5.5 0 0 1-.31.16zm3.62-1.71a.5.5 0 0 1-.21-1l1.81-.85a.5.5 0 0 1 .43.9l-1.81.85a.5.5 0 0 1-.31.16zm3.62-1.71a.5.5 0 0 1-.21-1l1.81-.85a.5.5 0 1 1 .43.9l-1.81.85a.5.5 0 0 1-.31.17zm3.62-1.71a.5.5 0 0 1-.21-1l1.75-.7a.5.5 0 1 1 .43.9l-1.81.85a.5.5 0 0 1-.26.02zm3.62-1.71a.5.5 0 0 1-.21-1l1.81-.85a.5.5 0 0 1 .43.9l-1.81.85a.5.5 0 0 1-.3.17zm3.62-1.71a.5.5 0 0 1-.21-1l1.81-.85a.5.5 0 0 1 .43.9l-1.81.85a.5.5 0 0 1-.32.17zm3.62-1.71a.5.5 0 0 1-.21-1l1.81-.85a.5.5 0 1 1 .43.9l-1.81.85a.5.5 0 0 1-.32.17zm3.62-1.71a.5.5 0 0 1-.21-1l1.81-.85a.5.5 0 1 1 .43.9l-1.81.85a.5.5 0 0 1-.33.18zm3.62-1.71a.5.5 0 0 1-.21-1l1.81-.85a.5.5 0 1 1 .43.9l-1.81.85a.5.5 0 0 1-.33.18zm3.62-1.71a.5.5 0 0 1-.21-1l1.81-.85a.5.5 0 0 1 .43.9l-1.81.85a.5.5 0 0 1-.33.18zm3.62-1.71a.5.5 0 0 1-.21-1l1.81-.85a.5.5 0 0 1 .43.9l-1.81.85a.5.5 0 0 1-.34.18zm3.62-1.71a.5.5 0 0 1-.21-1l1.81-.85a.5.5 0 0 1 .43.9l-1.81.85a.5.5 0 0 1-.34.19zm3.62-1.71a.5.5 0 0 1-.21-1l1.81-.85a.5.5 0 1 1 .43.9l-1.81.85a.5.5 0 0 1-.34.19zm3.62-1.71a.5.5 0 0 1-.21-1l1.81-.85a.5.5 0 0 1 .43.9l-1.81.85a.5.5 0 0 1-.34.19zm3.62-1.71a.5.5 0 0 1-.21-1l1.81-.85a.5.5 0 0 1 .43.9l-1.81.85a.5.5 0 0 1-.35.21zm3.62-1.71a.5.5 0 0 1-.21-1l1.81-.85a.5.5 0 0 1 .43.9l-1.81.85a.5.5 0 0 1-.35.19zm3.62-1.71a.5.5 0 0 1-.21-1l1.81-.85a.5.5 0 0 1 .43.9l-1.81.85a.5.5 0 0 1-.35.2zm3.62-1.71a.5.5 0 0 1-.21-1l1.81-.85a.5.5 0 1 1 .43.9l-1.81.85a.5.5 0 0 1-.36.2zm3.62-1.71a.5.5 0 0 1-.21-1l1.38-.65a.5.5 0 0 1 .43.9l-1.38.65a.5.5 0 0 1-.36.2z"/><path class="cls-1" d="M571 179.16q15.3 5.5 24.26 10.66t9 9V216h-153v-17.13q0-3.88 9-9t24.26-10.66q15.3-5.49 20.84-11.15t5.54-15.35a7.89 7.89 0 0 0-1-4.36c-.65-1-1.41-2-2.28-3.07a43.59 43.59 0 0 1-2.93-4.2 23.29 23.29 0 0 1-2.61-8.08q-.33-2.26-1.46-2.91l-2.28-1.29a6.85 6.85 0 0 1-2.28-2.58q-1.15-1.94-1.46-7.11a9.78 9.78 0 0 1 1.3-5.49 3.13 3.13 0 0 1 1.63-1.29q-.33-2.26-.65-4.85-.33-2.26-.65-4.52t-.82-4.96a24 24 0 0 1 5.54-16.64 30.51 30.51 0 0 1 9.93-7.59q6.35-3.23 16.77-3.23t16.93 3.23a30.2 30.2 0 0 1 10.1 7.59 21.08 21.08 0 0 1 4.56 9 25.23 25.23 0 0 1 .65 7.59q-.33 2.59-.49 4.85t-.49 4.52a32.38 32.38 0 0 1-1 4.85 3.75 3.75 0 0 1 1.3 1.29 5.42 5.42 0 0 1 1.14 2.1 10.65 10.65 0 0 1 .49 3.39q-.33 5.17-1.46 7.11a7 7 0 0 1-2.28 2.58l-2.27 1.36q-1.14.65-1.46 2.91a26.63 26.63 0 0 1-2.44 8.08 23.26 23.26 0 0 1-2.93 4.2 27.74 27.74 0 0 0-2.44 3.07 7.89 7.89 0 0 0-1 4.36q0 9.69 5.7 15.35T571 179.16z"/></svg>