<svg id="Laag_1" data-name="Laag 1" xmlns="http://www.w3.org/2000/svg" viewBox="0 0 332 240"><defs><style>.cls-1{fill:#fff}.cls-2{fill:#4f4e4e}.cls-3{fill:#efeeed}.cls-4{fill:#989999}</style></defs><title>overscan</title><path class="cls-1" d="M6 6h320v180H6z"/><path class="cls-2" d="M326 6v180H6V6h320m6-6H0v192h332V0zM136 192h60v12.5h-60z"/><path class="cls-2" d="M116 204h100v12H116z"/><path class="cls-3" d="M23.38 17.48h285.24v157.04H23.38z"/><path class="cls-4" d="M157.48 14.48a2.24 2.24 0 0 1-2.41-2.17h1.25a1.06 1.06 0 0 0 1.17 1.06c.84 0 1.14-.61 1.14-1.36s-.34-1.26-1.14-1.26a1.25 1.25 0 0 0-1 .56h-1.23l.15-3.92h4.22V8.5h-3.14l-.08 1.59a1.91 1.91 0 0 1 1.38-.45A2.1 2.1 0 0 1 159.9 12a2.29 2.29 0 0 1-2.42 2.48zm7.26-.63a2.43 2.43 0 0 1-3.24 0 4.09 4.09 0 0 1-.83-3 4.09 4.09 0 0 1 .83-3 2.43 2.43 0 0 1 3.24 0 4.09 4.09 0 0 1 .83 3 4.09 4.09 0 0 1-.83 3zm-1.62-5.45c-1.29 0-1.18 1.55-1.18 2.45s-.11 2.45 1.18 2.45 1.18-1.55 1.18-2.45.11-2.45-1.18-2.45zm7.96 5.6a2 2 0 0 1-1.27.42 1.78 1.78 0 0 1-1.36-.51v2.37h-1.25V9.13h1.08l.08.57a1.7 1.7 0 0 1 1.46-.7 2 2 0 0 1 1.26.44 2.8 2.8 0 0 1 .93 2.27 2.85 2.85 0 0 1-.93 2.29zm-.67-3.57a1 1 0 0 0-.84-.41c-1 0-1.18.93-1.18 1.68s.2 1.67 1.18 1.67a1 1 0 0 0 .84-.41 2.08 2.08 0 0 0 .33-1.26 2.11 2.11 0 0 0-.33-1.23zm5.21 1.26l1.78 2.64H176l-1.16-1.74-1.14 1.74h-1.37l1.82-2.65-1.83-2.55h1.44l1.16 1.68L176 9.13h1.37zm138.94 80.62V91l5.84 2.72v-3.49h1.12V95h-1zm.49 7.62a2.43 2.43 0 0 1 0-3.24 5.81 5.81 0 0 1 6 0 2.43 2.43 0 0 1 0 3.24 5.81 5.81 0 0 1-6 0zm5.45-1.62c0-1.29-1.55-1.18-2.45-1.18s-2.45-.11-2.45 1.18 1.55 1.18 2.45 1.18 2.45.11 2.45-1.18zm-5.65 7.96a2 2 0 0 1-.42-1.27 1.79 1.79 0 0 1 .51-1.36h-2.37v-1.25h7.2v1.08l-.57.08a1.7 1.7 0 0 1 .69 1.46 2 2 0 0 1-.44 1.26 2.8 2.8 0 0 1-2.27.93 2.85 2.85 0 0 1-2.33-.93zm3.57-.67a1 1 0 0 0 .41-.84c0-1-.93-1.18-1.68-1.18s-1.67.2-1.67 1.18a1 1 0 0 0 .41.84 2.08 2.08 0 0 0 1.26.33 2.11 2.11 0 0 0 1.28-.33zm-1.22 5.21l-2.64 1.78v-1.41l1.74-1.18-1.74-1.14v-1.37l2.65 1.82 2.55-1.83v1.44l-1.68 1.16 1.68 1.13v1.37zM11.38 92.31V91l5.84 2.72v-3.49h1.12V95h-1zm.49 7.62a2.43 2.43 0 0 1 0-3.24 4.09 4.09 0 0 1 3-.83 4.09 4.09 0 0 1 3 .83 2.43 2.43 0 0 1 0 3.24 4.09 4.09 0 0 1-3 .83 4.09 4.09 0 0 1-3-.83zm5.45-1.62c0-1.29-1.55-1.18-2.45-1.18s-2.45-.11-2.45 1.18 1.55 1.18 2.45 1.18 2.45.11 2.45-1.18zm-5.65 7.96a2 2 0 0 1-.42-1.27 1.79 1.79 0 0 1 .51-1.36H9.39v-1.25h7.2v1.08l-.57.08a1.7 1.7 0 0 1 .69 1.46 2 2 0 0 1-.44 1.26 2.8 2.8 0 0 1-2.27.93 2.85 2.85 0 0 1-2.33-.93zm3.57-.67a1 1 0 0 0 .41-.84c0-1-.93-1.18-1.68-1.18s-1.67.2-1.67 1.18a1 1 0 0 0 .41.84 2.08 2.08 0 0 0 1.26.33 2.11 2.11 0 0 0 1.28-.33zM14 110.81l-2.64 1.78v-1.41l1.76-1.18-1.74-1.14v-1.37l2.62 1.84 2.55-1.83v1.44l-1.68 1.16 1.68 1.13v1.37zm112.41-7.62a8.66 8.66 0 0 1-10.6.07 5.51 5.51 0 0 1-1.8-4h3.21a3 3 0 0 0 .9 2.12 4.11 4.11 0 0 0 2.89.93 4.17 4.17 0 0 0 3-.93 2.14 2.14 0 0 0 .68-1.65c0-1.27-1-1.85-2-2s-2.68-.27-3.82-.46c-2.38-.39-4.38-1.95-4.38-4.82A4.77 4.77 0 0 1 116 89a7.37 7.37 0 0 1 5-1.84 7.12 7.12 0 0 1 4.82 1.68 5.23 5.23 0 0 1 1.75 3.67h-3.21a2.8 2.8 0 0 0-.75-1.7 4 4 0 0 0-2.63-.92 3.89 3.89 0 0 0-2.8.95 2 2 0 0 0-.58 1.46 1.83 1.83 0 0 0 1.75 1.87c1.09.17 2.63.29 3.75.44 2.58.36 4.74 2 4.74 5a4.85 4.85 0 0 1-1.43 3.58zm13.65 1.72a2 2 0 0 1-2.14-1.78 4.43 4.43 0 0 1-3.84 1.9c-3 0-4.57-1.9-4.57-4 0-2.41 1.87-3.79 4.28-4l3.72-.27v-.78c0-1.19-.41-2-2.14-2-1.41 0-2.24.63-2.31 1.8h-2.94c.17-2.85 2.43-4.11 5.25-4.11 2.17 0 4 .68 4.74 2.58a7 7 0 0 1 .36 2.55v4.7c0 .58.2.8.71.8a1.9 1.9 0 0 0 .39 0v2.24a3.07 3.07 0 0 1-1.51.37zm-2.56-5.81l-3.21.24a1.78 1.78 0 0 0-1.82 1.65 1.66 1.66 0 0 0 1.8 1.58c1.9 0 3.24-1 3.24-2.89zm12.04-9.73a1.47 1.47 0 0 0-1.65 1.53v1.17h3.38v2.51h-3.38v10.14h-3V94.58h-2.14v-2.51h2.14v-1.21c0-2.34 1.58-4 4.31-4a10.44 10.44 0 0 1 2.38.27v2.43a9.61 9.61 0 0 0-2.04-.19zM164 99.34h-8.46a3.34 3.34 0 0 0 .92 2.48 2.66 2.66 0 0 0 1.87.78 2.36 2.36 0 0 0 1.85-.61 2.3 2.3 0 0 0 .61-1.07h2.92a5 5 0 0 1-1.07 2.34 5.42 5.42 0 0 1-4.26 1.78 5.51 5.51 0 0 1-4-1.56 6.85 6.85 0 0 1-1.95-5.06 7.1 7.1 0 0 1 1.82-5.06 5.49 5.49 0 0 1 4-1.61 5.35 5.35 0 0 1 4.62 2.34 7.11 7.11 0 0 1 1.09 4.4s.04.59.04.85zm-3.79-4.43a2.54 2.54 0 0 0-1.92-.73 2.59 2.59 0 0 0-2.12 1 3.09 3.09 0 0 0-.66 2H161a3.3 3.3 0 0 0-.8-2.26zm21.25 10a2 2 0 0 1-2.14-1.78 4.43 4.43 0 0 1-3.84 1.9c-3 0-4.57-1.9-4.57-4 0-2.41 1.87-3.79 4.28-4l3.72-.27v-.78c0-1.19-.41-2-2.14-2-1.41 0-2.24.63-2.31 1.8h-2.94c.17-2.85 2.43-4.11 5.25-4.11 2.17 0 4 .68 4.74 2.58a7 7 0 0 1 .36 2.55v4.7c0 .58.2.8.71.8a1.9 1.9 0 0 0 .39 0v2.24a3.07 3.07 0 0 1-1.51.37zm-2.56-5.81l-3.21.24a1.78 1.78 0 0 0-1.82 1.65 1.66 1.66 0 0 0 1.8 1.58c1.9 0 3.24-1 3.24-2.89zm13.04-4.33c-2.14 0-3.26 1.53-3.26 3.57v6.37h-3.06V92.07h2.58l.27 1.9A3.64 3.64 0 0 1 192 91.9a6.19 6.19 0 0 1 1 .1v2.92a5.15 5.15 0 0 0-1.06-.15zm13.72 4.57h-8.46a3.34 3.34 0 0 0 .92 2.48 2.66 2.66 0 0 0 1.87.78 2.36 2.36 0 0 0 1.85-.61 2.3 2.3 0 0 0 .61-1.07h2.92a5 5 0 0 1-1.07 2.34A5.42 5.42 0 0 1 200 105a5.51 5.51 0 0 1-4-1.56 6.85 6.85 0 0 1-1.95-5.06 7.1 7.1 0 0 1 1.82-5.06 5.49 5.49 0 0 1 4-1.61 5.35 5.35 0 0 1 4.62 2.34 7.11 7.11 0 0 1 1.09 4.4s.08.63.08.89zm-3.79-4.43a2.54 2.54 0 0 0-1.92-.73 2.59 2.59 0 0 0-2.12 1 3.09 3.09 0 0 0-.66 2h5.47a3.3 3.3 0 0 0-.77-2.26zm16.13 10a2 2 0 0 1-2.14-1.78 4.43 4.43 0 0 1-3.84 1.9c-3 0-4.57-1.9-4.57-4 0-2.41 1.87-3.79 4.28-4l3.72-.27v-.78c0-1.19-.41-2-2.14-2-1.41 0-2.24.63-2.31 1.8h-2.9c.17-2.85 2.43-4.11 5.25-4.11 2.17 0 4 .68 4.74 2.58a7 7 0 0 1 .36 2.55v4.7c0 .58.2.8.71.8a1.9 1.9 0 0 0 .39 0v2.24a3.07 3.07 0 0 1-1.55.37zm-2.55-5.81l-3.21.24a1.78 1.78 0 0 0-1.82 1.65 1.66 1.66 0 0 0 1.8 1.58c1.9 0 3.24-1 3.24-2.89zm-59.97 83.38a2.24 2.24 0 0 1-2.41-2.17h1.25a1.06 1.06 0 0 0 1.17 1.06c.84 0 1.14-.61 1.14-1.36s-.34-1.26-1.14-1.26a1.25 1.25 0 0 0-1 .56h-1.23l.15-3.92h4.22v1.12h-3.14l-.08 1.59a1.91 1.91 0 0 1 1.38-.45 2.1 2.1 0 0 1 2.11 2.35 2.29 2.29 0 0 1-2.42 2.48zm7.26-.63a2.43 2.43 0 0 1-3.24 0 5.81 5.81 0 0 1 0-6 2.43 2.43 0 0 1 3.24 0 5.81 5.81 0 0 1 0 6zm-1.62-5.45c-1.29 0-1.18 1.55-1.18 2.45s-.11 2.45 1.18 2.45 1.18-1.55 1.18-2.45.11-2.45-1.18-2.45zm7.96 5.6a2 2 0 0 1-1.27.42 1.78 1.78 0 0 1-1.36-.51v2.37h-1.25v-7.2h1.08l.08.57a1.7 1.7 0 0 1 1.46-.69 2 2 0 0 1 1.26.44 2.8 2.8 0 0 1 .93 2.27 2.85 2.85 0 0 1-.93 2.33zm-.67-3.57a1 1 0 0 0-.84-.41c-1 0-1.18.93-1.18 1.68s.2 1.67 1.18 1.67a1 1 0 0 0 .84-.41 2.08 2.08 0 0 0 .33-1.26 2.11 2.11 0 0 0-.33-1.23zm5.21 1.26l1.78 2.64H174l-1.16-1.74-1.14 1.74h-1.37l1.82-2.65-1.83-2.55h1.44l1.16 1.68 1.13-1.68h1.37z"/></svg>