<svg version="1" xmlns="http://www.w3.org/2000/svg" width="400" height="400" viewBox="0 0 300.000000 300.000000"><path d="M96 6.7c-3.6 3.3-5 7.6-3.9 11.8.9 3.3 51.4 54.4 53.9 54.6.8 0 2.5.2 3.7.3 1.2.1 3.3-.2 4.7-.8 4.3-1.8 53.3-51.1 53.9-54.2.6-3.5-.8-8.5-3.3-11.2-2.3-2.4-7.7-3.7-11.6-2.8-1.5.4-10.9 8.9-22.7 20.7-11.1 10.9-20.5 19.8-20.9 19.7-.4-.2-9.4-8.9-20-19.4-10.6-10.5-20.3-19.6-21.5-20.2-3.9-2.1-9-1.5-12.3 1.5zM64.8 79.5c-.1.1-1.9.5-3.8.8-6.1 1-10.4 2.6-16.4 6.2-10.4 6.3-18 15.8-21.7 27.3-2.1 6.5-2.2 8.2-2.3 68.7-.2 68.2 0 71.1 5.6 82.3 6.1 12.3 19.7 22.9 33.1 25.6 9 1.9 172.4 1.9 181.4 0 18.9-3.9 35-20.5 38.1-39.4.8-5.1.7-125.6-.1-131.5-.4-2.8-2.4-8.4-4.4-12.5-5.8-11.8-15.8-20.6-29.2-25.4-5.4-1.9-8.3-2-92.8-2.2-47.9-.2-87.3-.1-87.5.1zm175.4 31.8c3.1 1.8 5.7 4.4 7.5 7.5l2.8 4.7V184c.1 64 .1 64.6-4.6 71.1-1.1 1.6-4.3 4.1-6.9 5.4l-4.8 2.5h-83.7c-80.6 0-83.8 0-88-1.9-5.6-2.5-9.9-6.9-11.6-11.8-1.8-5.3-1.9-122.1-.1-127.3 1.7-4.8 6.2-9.6 11.1-11.8 3.9-1.8 8.5-1.9 88.8-1.8l84.8.1 4.7 2.8z"/></svg>