<svg xmlns="http://www.w3.org/2000/svg" viewBox="0 0 140 30"><path fill="#FFF" d="M3.5 11.2v2.1h.1c1-1.6 2.3-2.4 3.9-2.4 1.9 0 3.2 1 3.9 2.9 1.1-1.9 2.5-2.9 4.2-2.9 1.3 0 2.3.4 3 1.3.8.9 1.2 2.1 1.2 3.6v7.5h-1.3v-6.9c0-1.3-.3-2.3-.8-3.1-.6-.8-1.3-1.1-2.3-1.1-.7 0-1.4.2-2 .7-.6.4-1.1 1.2-1.7 2.2v8.3h-1.3v-6.9c0-1.3-.3-2.4-.9-3.1-.6-.7-1.3-1.1-2.3-1.1-1.4 0-2.6.9-3.7 2.6v8.5H2.2V11.2h1.3zm29.9 5.6h-9.6v.6c0 1.4.5 2.5 1.5 3.4 1 .9 2.1 1.4 3.4 1.4 1.5 0 3-.6 4.5-1.8V22c-1.4 1.1-2.9 1.6-4.7 1.6-1.8 0-3.2-.6-4.3-1.8-1.1-1.2-1.7-2.8-1.7-4.6 0-1.8.5-3.3 1.6-4.4 1.1-1.2 2.4-1.7 4-1.7 1.5 0 2.8.5 3.8 1.6 1 .9 1.5 2.3 1.5 4.1m-9.4-1h7.9c-.5-2.4-1.7-3.6-3.8-3.6-1 0-1.9.3-2.6.9-.7.7-1.2 1.6-1.5 2.7m14.4-8.6v4h3.4v1.1h-3.4v7.2c0 1.2.1 1.9.3 2.3.2.4.7.5 1.5.5.6 0 1.4-.2 2.2-.6V23c-.9.4-1.7.6-2.5.6s-1.5-.2-2-.7c-.5-.5-.8-1.1-.8-1.9v-8.7h-3.3v-1.1h3.3V8.3l.9-1.1h.4zM53 12.4l-.8 1.2c-1-.9-1.8-1.4-2.4-1.4-1.2 0-2.5 1.2-3.9 3.5v7.6h-1.3V11.2h1.3v3.2h.1c1.5-2.3 2.9-3.4 4.3-3.4.7 0 1.6.4 2.7 1.4m6.5-1.4c1.8 0 3.2.6 4.4 1.8s1.8 2.7 1.8 4.5c0 1.8-.6 3.3-1.8 4.5-1.2 1.2-2.6 1.8-4.4 1.8-1.8 0-3.2-.6-4.4-1.8-1.2-1.2-1.8-2.7-1.8-4.5 0-1.8.6-3.3 1.8-4.5 1.2-1.2 2.7-1.8 4.4-1.8m0 11.3c1.4 0 2.5-.5 3.4-1.4.9-1 1.4-2.2 1.4-3.6s-.5-2.6-1.4-3.6-2.1-1.5-3.4-1.5c-1.4 0-2.5.5-3.4 1.4-.9 1-1.4 2.2-1.4 3.6s.5 2.6 1.4 3.6c.9 1 2.1 1.5 3.4 1.5m9.1-17.4H71v18.5h-2.4zm11.7 6.3c1.8 0 3.4.6 4.6 1.8 1.2 1.2 1.8 2.7 1.8 4.5 0 1.8-.6 3.2-1.9 4.4-1.2 1.2-2.8 1.7-4.7 1.7-1.8 0-3.3-.6-4.6-1.8-1.2-1.2-1.8-2.6-1.8-4.4 0-1.8.6-3.3 1.9-4.4 1.3-1.2 2.9-1.8 4.7-1.8m-.1 2.1c-1.2 0-2.1.4-2.8 1.1-.7.8-1.1 1.7-1.1 2.9s.4 2.1 1.1 2.8c.8.7 1.7 1.1 2.9 1.1s2.1-.4 2.9-1.1c.8-.7 1.1-1.7 1.1-2.9s-.4-2.1-1.2-2.9c-.7-.6-1.7-1-2.9-1m8.5 2.1c0-1.3.5-2.3 1.4-3.1.9-.8 2.2-1.1 3.9-1.1h5v1.9h-2.5c.5.5.8.9 1 1.3.2.4.3.8.3 1.4 0 .6-.2 1.3-.5 1.9-.4.6-.8 1.1-1.4 1.4-.6.3-1.5.6-2.8.8-.9.1-1.4.4-1.4.9 0 .3.2.5.5.7.3.2 1 .4 1.8.6 1.5.3 2.4.6 2.9.8.4.2.8.4 1.2.8.6.6.9 1.3.9 2.2 0 1.2-.5 2.1-1.5 2.8-1 .7-2.4 1-4.1 1-1.7 0-3.1-.3-4.2-1-1-.7-1.6-1.6-1.6-2.8 0-1.6 1-2.7 3.1-3.2-.8-.5-1.2-1-1.2-1.5 0-.4.2-.7.5-1.1.3-.3.8-.6 1.4-.7-1.8-.9-2.7-2.2-2.7-4m3.9 8.5c-.8 0-1.5.2-2 .5s-.8.8-.8 1.3c0 1.3 1.1 1.9 3.4 1.9 1.1 0 1.9-.2 2.5-.5.6-.3.9-.8.9-1.3 0-.6-.4-1-1.1-1.4-.8-.3-1.7-.5-2.9-.5m.6-10.6c-.7 0-1.2.2-1.7.7-.5.4-.7 1-.7 1.6 0 .6.2 1.1.7 1.6.4.4 1 .6 1.7.6s1.2-.2 1.7-.6c.5-.4.7-.9.7-1.6 0-.6-.2-1.2-.7-1.6-.5-.5-1-.7-1.7-.7m9.2-7.2c.4 0 .7.1 1 .4.3.3.4.6.4 1s-.1.7-.4 1c-.3.3-.6.4-1 .4s-.7-.1-1-.4c-.3-.3-.4-.6-.4-1s.1-.7.4-1c.3-.3.6-.4 1-.4m-1.2 5.1h2.4v12.2h-2.4V11.2zm14.7 9.3v2.4c-1.2.4-2.4.7-3.5.7-1.9 0-3.4-.6-4.6-1.7-1.1-1.1-1.7-2.6-1.7-4.5s.5-3.5 1.7-4.6c1.1-1.2 2.5-1.8 4.3-1.8.6 0 1.2.1 1.7.2s1.1.3 1.8.7v2.6c-1.2-.8-2.3-1.2-3.4-1.2s-2 .4-2.7 1.1c-.7.8-1 1.7-1 2.9s.4 2.2 1.1 3c.8.7 1.8 1.1 3 1.1 1-.1 2.1-.3 3.3-.9m10.8-4.5v5.2c0 .4.1.6.4.6.3 0 .7-.2 1.4-.6v1.5c-.5.4-1 .6-1.3.7-.3.1-.7.2-1 .2-1 0-1.6-.4-1.8-1.2-1 .8-2.1 1.2-3.3 1.2-.8 0-1.6-.3-2.1-.8-.6-.6-.8-1.3-.8-2.1s.3-1.5.8-2.1c.5-.6 1.3-1.1 2.3-1.4l3.1-1.1v-.6c0-1.5-.7-2.2-2.2-2.2-1.3 0-2.6.7-3.8 2v-2.6c.9-1.1 2.3-1.7 4-1.7 1.3 0 2.4.3 3.2 1 .3.2.5.5.7.9.2.4.3.7.4 1.1v2m-2.3 5v-3.6l-1.6.6c-.8.3-1.4.7-1.7 1-.3.3-.5.7-.5 1.2s.2.9.5 1.2c.3.3.7.5 1.2.5.7 0 1.4-.3 2.1-.9m5.9-16.1h2.4v18.5h-2.4zm4.1 1.6c0-.4.2-.8.5-1.1.3-.3.7-.5 1.1-.5.4 0 .8.2 1.1.5.3.3.5.7.5 1.1 0 .4-.2.8-.5 1.1-.3.3-.7.5-1.1.5-.4 0-.8-.2-1.1-.5-.4-.4-.5-.7-.5-1.1m2.9 0c0-.4-.1-.7-.4-1-.3-.3-.6-.4-1-.4s-.7.1-1 .4c-.3.3-.4.6-.4 1s.1.7.4 1c.3.3.6.4 1 .4s.7-.1 1-.4c.2-.4.4-.7.4-1m-2-.8h.7c.2 0 .3 0 .4.1.1.1.1.2.1.3 0 .3-.1.4-.4.5.1.1.2.1.3.2.1.1.1.2.3.5h-.2c-.1-.3-.3-.5-.3-.6-.1-.1-.2-.1-.4-.1h-.1v.7h-.2c-.2 0-.2-1.6-.2-1.6zm.2.7h.3c.2 0 .3 0 .4-.1.1 0 .1-.1.1-.2s0-.2-.1-.2-.2-.1-.4-.1h-.3v.6z"/></svg>