<svg xmlns="http://www.w3.org/2000/svg" viewBox="0 0 26 30"><path fill="#FFF" d="M16.6.6L13 4.3 9.3.6 7.9 2 13 7.1 18 2zM13 26.7c-2.5 0-5-.1-7.5-.4-1.9-.2-3.7-1.9-4-3.8-.5-3.6-.5-7 0-10.6.3-1.8 2-3.6 4.1-3.8 2.5-.3 5-.4 7.5-.4s5 .1 7.5.4c1.9.2 3.7 1.9 4 3.8.5 3.6.5 7 0 10.6-.3 1.8-2.1 3.5-4 3.8-2.6.3-5.2.4-7.6.4zm-9.2-4.5c.2.8 1.1 1.6 1.9 1.7 2.4.2 4.9.4 7.3.4s4.8-.1 7.3-.4c.8-.1 1.7-1 1.9-1.7.5-3.4.5-6.5 0-9.9-.1-.8-1.1-1.6-1.9-1.7-2.4-.2-4.9-.4-7.3-.4s-4.8.1-7.3.4c-.8.1-1.7 1-1.9 1.7-.5 3.4-.5 6.5 0 9.9z"/></svg>